<?xml version="1.0" encoding="utf-8"?>
<!-- Generator: Adobe Illustrator 27.0.0, SVG Export Plug-In . SVG Version: 6.00 Build 0)  -->
<svg version="1.1" id="Calque_1" xmlns="http://www.w3.org/2000/svg" xmlns:xlink="http://www.w3.org/1999/xlink" x="0px" y="0px"
	 viewBox="0 0 160 250" style="enable-background:new 0 0 160 250;" xml:space="preserve">
<style type="text/css">
	.st0{fill:#2D1D10;}
	.st1{fill:#603B19;}
	.st2{fill:#CAF5FC;}
	.st3{fill:#193D68;}
	.st4{fill:#8C9EAF;}
	.st5{fill:#81C5CC;}
	.st6{fill:#E8B992;}
	.st7{fill:#4D8693;}
	.st8{fill:#113754;}
	.st9{fill:#FFFFFF;}
	.st10{fill:#C15B80;}
	.st11{fill:#682F44;}
	.st12{fill:#D685A6;}
	.st13{fill:none;stroke:#DBA171;stroke-linecap:round;stroke-miterlimit:10;}
	.st14{fill:#7A4913;}
	.st15{opacity:0.65;fill:#E5B241;enable-background:new    ;}
	.st16{fill:#494949;}
	.st17{fill:#707070;}
	.st18{fill:#383536;}
	.st19{fill:#595657;}
	.st20{fill:#003B36;}
</style>
<g id="corps">
	<path class="st0" d="M54.2,235.2c0,0-19.7,7.7-20.7,11.5c-0.1,0.5,0.5,2.9,1.6,3c16.6,1.4,38.9-1.6,39.1-9.2S54.2,235.2,54.2,235.2
		z"/>
	<path class="st1" d="M54.4,234.6c0,0-16.3,6.7-20.2,10.6c-1.2,1.2-0.8,3.2,1.1,3.3c16.2,1.1,38.9-1.5,39.1-8.8
		S54.4,234.6,54.4,234.6z"/>
	<path class="st0" d="M110.3,235.2c0,0,19.7,7.7,20.6,11.5c0.1,0.5-0.4,2.9-1.5,3c-16.7,1.4-39-1.6-39.1-9.2
		S110.3,235.2,110.3,235.2z"/>
	<path class="st1" d="M110.1,234.6c0,0,16.2,6.7,20.1,10.6c1.2,1.2,0.8,3.2-1,3.3c-16.3,1.1-39-1.5-39.1-8.8
		S110.1,234.6,110.1,234.6z"/>
	<path class="st2" d="M119.9,201.7c7.3,29-15,39.4-36.6,39.4s-48.6-12.4-41.8-39.4c7.1-28.6,1.8-53.4,39.2-53.4
		C122.6,148.3,112.6,173.1,119.9,201.7z"/>
	<path class="st3" d="M121.3,211.2c-38,2.3-65.7,0.4-80.9-1.3c0.1,21.3,23.5,31.2,42.9,31.2S122,233,121.3,211.2z"/>
	<path class="st1" d="M64.1,214l-15.7-0.8c0,1.3,0.3,3.9,0.5,5.5c4.6,0.4,9.8,0.7,15.3,0.9C64,217.7,63.9,215.9,64.1,214z"/>
	<path class="st1" d="M75.7,214.5c-0.8,0-1.4,0.6-1.4,1.4v1.2h3.2c0.4,0,0.7,0.3,0.7,0.7s-0.3,0.7-0.7,0.7h-3.2v1.4h20.1
		c0.3-1.7,0.4-3.5,0.5-5.2c-6,0-12.4-0.1-18.5-0.3L75.7,214.5z"/>
	<path class="st1" d="M97.9,220l13.1-0.2c0.3-1.8,0.4-3.7,0.5-5.5c-4.1,0.3-8.6,0.4-13.4,0.5C98.2,216.5,98.1,218.3,97.9,220z"/>
	<path class="st1" d="M72.4,214.3l-5.2-0.2c0,1.9,0.1,3.7,0.4,5.6H72v-4C72,215.2,72.1,214.7,72.4,214.3z"/>
	<path class="st1" d="M114.7,214.1c0.1,1.9,0,3.7-0.3,5.6l6-0.2c0.4-2,0.7-4.1,0.8-6.2C119.1,213.7,116.9,214,114.7,214.1z"/>
	<path class="st1" d="M45.3,213l-4.8-0.4c0.2,1.8,0.5,3.6,1.1,5.3l3.8,0.4C45.2,216.5,45.2,214.8,45.3,213z"/>
	<path class="st4" d="M75.7,221.1c-0.8,0-1.4-0.6-1.4-1.4v-3.8c0-0.8,0.6-1.4,1.4-1.4h12.2c-0.4-0.9-1.3-1.4-2.3-1.4h-11
		c-1.5,0.1-2.6,1.2-2.6,2.7v3.9c0,1.5,1.1,2.6,2.6,2.7h11c1,0,1.8-0.5,2.3-1.3H75.7z"/>
	<circle class="st1" cx="80.9" cy="178.6" r="1.4"/>
	<circle class="st1" cx="80.9" cy="166.3" r="1.4"/>
	<circle class="st1" cx="80.9" cy="193.3" r="1.4"/>
	<circle class="st1" cx="80.9" cy="208.1" r="1.4"/>
	<path class="st5" d="M56.5,158.4l10,6.5l13.2-6.5l10.5,7.3l20-9c0,0-20.4-6.4-28.4-6.4s-26.6,3.6-28.9,4.6L56.5,158.4z"/>
</g>
<g id="tete">
	<path class="st6" d="M155.8,96.6c-3.4,39.9,13.6,61.8-81.3,61.4C-7,157.7,2.3,123.9,5.6,84s39.7-69.3,81.2-65.8
		S159.1,56.8,155.8,96.6z"/>
	<path class="st7" d="M61.2,74.3h2.1c3.3,0,5.9,2.6,5.9,5.9v17.5c0,3.3-2.6,5.9-5.9,5.9h-2.1c-3.3,0-5.9-2.6-5.9-5.9V80.2
		C55.3,76.9,57.9,74.3,61.2,74.3z"/>
	<path class="st7" d="M90.1,74.3h2.1c3.3,0,5.9,2.6,5.9,5.9v17.5c0,3.3-2.6,5.9-5.9,5.9h-2.1c-3.3,0-5.9-2.6-5.9-5.9V80.2
		C84.2,76.9,86.8,74.3,90.1,74.3z"/>
	<circle class="st8" cx="62.2" cy="89.4" r="4.9"/>
	<circle class="st8" cx="91.2" cy="89.4" r="4.9"/>
	<circle class="st9" cx="65.5" cy="85.6" r="3.3"/>
	<circle class="st9" cx="58.1" cy="94.8" r="1.6"/>
	<circle class="st9" cx="87.9" cy="94.8" r="1.6"/>
	<circle class="st9" cx="94.8" cy="85.6" r="3.3"/>
	<path class="st10" d="M65.9,125c0,0,33.2,0.7,38.7-6.3C99.8,131,94,135.8,86.2,136.1S71.5,136.3,65.9,125z"/>
	<path class="st11" d="M80.9,124.6c-8.1,0.5-15,0.4-15,0.4c3.2,6.5,6.9,9.2,10.9,10.4C77.5,132.1,78.8,127.7,80.9,124.6z"/>
	<path class="st12" d="M14.2,111.8h25.7c0.9,0,1.6,0.7,1.6,1.6v2c0,0.9-0.7,1.6-1.6,1.6H14.2c-0.9,0-1.6-0.7-1.6-1.6v-2
		C12.6,112.5,13.3,111.8,14.2,111.8z"/>
	<path class="st12" d="M118.3,111.8H144c0.9,0,1.6,0.7,1.6,1.6v2c0,0.9-0.7,1.6-1.6,1.6h-25.7c-0.9,0-1.6-0.7-1.6-1.6v-2
		C116.7,112.5,117.4,111.8,118.3,111.8z"/>
	<ellipse class="st6" cx="153.9" cy="98.2" rx="6.1" ry="9.3"/>
	<ellipse class="st6" cx="6.1" cy="98.2" rx="6.1" ry="9.3"/>
	<path class="st13" d="M156.9,95.7c0.2,0.9-0.3,3.1-1.4,2.9s-1.9,2.2-1.5,2.8"/>
	<path class="st13" d="M3.1,95.5c-0.2,0.8,0.3,3.1,1.4,2.9s1.9,2.2,1.5,2.8"/>
	<path class="st13" d="M86.9,140.5c-0.9,0.7-5,0.3-5.3-0.3"/>
	<ellipse class="st6" cx="62.2" cy="103.5" rx="15" ry="5.2"/>
	<ellipse class="st6" cx="90.4" cy="103.5" rx="15" ry="5.2"/>
	<path class="st14" d="M52.8,64.9c0,0,9.3-4.4,14-0.3C64.8,61.7,58.3,59.2,52.8,64.9z"/>
	<path class="st14" d="M99,65.3c0,0-9.3-4.4-14-0.3C86.9,62.2,93.5,59.6,99,65.3z"/>
	<path class="st14" d="M18.7,21.6c-1.1-7.2,3.9-20.8,3.9-20.8s1.1,13.9,6.8,15.4c-0.9-4.3-0.8-8.7,0.5-12.9c0,0,4.3,9.5,7.3,10.2
		c-0.2-2.7-0.8-6.4,0.3-8.4c1.3,3.4,6.7,7.5,7.3,7.6c0-2.7,0.2-5.4,0.6-8.1c1.8,1.8,6,7,9,7.1c-1-2.6-1.4-3.8-0.9-6.6
		c1.7,2.5,6,5.5,7.2,5.8c-0.4-2.1-0.5-4.3-0.3-6.5c0,0,5.8,6.2,7.9,6.8c-0.1-2.2,0.1-5.8,0.1-5.8s3.1,5.7,5.8,5.9
		C74,8.8,74,6.4,74,6.4s5.6,4.9,8.1,5.5c-0.4-2.5,0.8-6.8,0.8-6.8s6.7,8.3,7.7,7.6l1.3-6.9c0,0,11.4,9.6,25.1,12.9
		c7.1-0.2,8.4-4.5,8.4-4.5s1.2,5.1,0.5,6.6c1.8-0.6,3.5-1.5,5-2.6c0,0,1.8,2.8,1.2,4.6c2.2-0.6,4.2-1.5,6.1-2.7c0,0,1,4.2-0.3,5
		c5.1,0.3,5.5-1.4,5.5-1.4s1.6,3.3,0,4.4c2,0.2,4-0.1,5.9-0.7c0,0-0.3,4-2.2,4.8c0.7,3.8,10.8,51.7,9.1,59.7
		c-3.5-3.8-6.7-21.7-14.7-41.6c-8.3-11.1-10.3-6.4-25.3-12.1c-1.2-0.5-2.6-0.4-3.8,0.1h-0.1c-0.2,0.1-0.5,0-0.6-0.2
		c-0.3-1.1-1.3-1.9-2.5-1.9c-2.1-0.2-72.8-3.7-83.4,7.5C17.6,51.9,11.5,62,8.1,73.1c0,0-4.7-55.2,1.7-69.1
		C17.1,16.7,18.7,21.6,18.7,21.6z"/>
	<path class="st15" d="M45.5,92.1h27.2c2.5,0,4.5,2,4.5,4.5v3.9c0,2.5-2,4.5-4.5,4.5H45.5c-2.5,0-4.5-2-4.5-4.5v-3.9
		C41,94.1,43,92.1,45.5,92.1z"/>
	<path class="st15" d="M84.5,92.1h27.2c2.5,0,4.5,2,4.5,4.5v3.9c0,2.5-2,4.5-4.5,4.5H84.5c-2.5,0-4.5-2-4.5-4.5v-3.9
		C80,94.1,82,92.1,84.5,92.1z"/>
	<path class="st16" d="M111.7,91.9H84.5c-1.5,0-2.9,0.7-3.8,2h-4.3c-0.8-1.3-2.2-2-3.7-2H45.4C43,92,41,94,41,96.4v0.8
		c0-2.4,2-4.4,4.4-4.5h27.3c2.5,0,4.5,2,4.5,4.5v-0.8c0-0.7-0.2-1.4-0.5-2h3.8c-0.3,0.6-0.5,1.3-0.5,2v0.8c0-2.5,2-4.5,4.5-4.5h27.2
		c2.5,0,4.5,2,4.5,4.5v-0.8C116.2,93.9,114.2,91.9,111.7,91.9z"/>
</g>
<g id="action">
	<path class="st17" d="M29.2,137.1h102.7c2.6,0,4.7,2.1,4.7,4.7v45.9c0,2.6-2.1,4.7-4.7,4.7H29.2c-2.6,0-4.7-2.1-4.7-4.7v-45.9
		C24.5,139.2,26.6,137.1,29.2,137.1z"/>
	<path class="st18" d="M29.7,139.4h101.6c1.8,0,3.2,1.4,3.2,3.2v44.2c0,1.8-1.4,3.2-3.2,3.2H29.7c-1.8,0-3.2-1.4-3.2-3.2v-44.2
		C26.5,140.8,27.9,139.4,29.7,139.4z"/>
	<polygon class="st17" points="144.5,203.1 14,203.1 26,190.8 135.1,190.8 	"/>
	<rect x="14" y="203.1" class="st19" width="130.5" height="2.8"/>
	<path class="st6" d="M18.9,191.4c1.8-1.5,12.3-1,11.6,1.9S21,196,21,196l-6.1,6.3C14.9,202.3,12.2,196.9,18.9,191.4z"/>
	<path class="st6" d="M141,191.6c-1.7-1.6-12.2-1.8-11.7,1.1s9.3,3.4,9.3,3.4l5.6,6.7C144.2,202.8,147.3,197.6,141,191.6z"/>
	<path class="st6" d="M141.3,205.9c0,0-5.3,2.9-9.2,2s-4-2-4-2H141.3z"/>
	<path class="st6" d="M29.7,205.9c0,0-5.2,2.9-9.1,2s-4-2-4-2H29.7z"/>
	<rect x="38.6" y="146.4" class="st9" width="28.6" height="1.3"/>
	<rect x="41" y="150.3" class="st9" width="28.6" height="1.3"/>
	<rect x="41" y="152.8" class="st9" width="28.6" height="1.3"/>
	<rect x="41" y="155.3" class="st9" width="28.6" height="1.3"/>
	<rect x="38.6" y="157.8" class="st9" width="28.6" height="1.3"/>
	<rect x="38.6" y="160.9" class="st9" width="28.6" height="1.3"/>
	<rect x="38.6" y="164.1" class="st9" width="28.6" height="1.3"/>
	<rect x="38.6" y="166.3" class="st9" width="28.6" height="1.3"/>
	<rect x="38.6" y="174.7" class="st9" width="28.6" height="1.3"/>
	<rect x="38.6" y="176.6" class="st9" width="28.6" height="1.3"/>
	<rect x="42.6" y="179.3" class="st9" width="28.6" height="1.3"/>
	<rect x="42.6" y="181.4" class="st9" width="28.6" height="1.3"/>
	<rect x="38.6" y="183.6" class="st9" width="28.6" height="1.3"/>
	<rect x="83.7" y="144.8" class="st9" width="36.6" height="42.2"/>
</g>
<path class="st20" d="M111.5,175.8c0-0.4,0-0.6,0-0.8c0-0.2,0-1.3,0-1.3s-1.3,0.1-1.4,0.1c-0.1,0-0.6-0.2-0.8-0.1
	c-0.1,0-0.2,0-0.3,0l-1.1-0.5l-0.1,0l-0.1-0.1l-0.3-0.2l-1-0.4v-0.1l-0.3-0.2h0.5l0.1-0.3l0.3,0.2c0,0,1.4,0,1.5,0s1.1,0,1.3-0.1
	s1.2,0.1,1.5,0.1s0.2-0.8,0.2-0.8s-0.2,0.1-0.1-0.1c0.1-0.2,0.1-0.2,0.1-0.2v-1.1c0,0,0-1.2,0-1.4s0.1-0.3,0-0.6
	c-0.1-0.3,0-0.4,0-0.4v-1.3c0,0-0.1-0.8-0.1-1.2s0.1-1,0.1-1c0-0.2,0-0.8,0-0.8l-0.3-0.3l-1.3,1.3l-1,1c0,0-1.1,1.1-1.1,1.2
	c-0.1,0.1-0.1,0.4-0.1,0.4s-0.3,0.1-0.5,0.2c-0.1,0.1-0.2,0.2-0.2,0.4c0,0.2-0.1,0.1-0.2,0.2c-0.1,0.1-0.2,0-0.2,0s-1.2,1.2-1.4,1.4
	c-0.1,0.1,0,0.4-0.1,0.4c-0.1,0-0.3,0-0.3,0l-0.9,0.9c0,0-0.3,0.3-0.5,0.5c-0.1,0.1-0.2,0.2-0.2,0.2l0,0c0,0-0.6,0.6-0.7,0.7
	c-0.1,0.1-0.1,0.4-0.1,0.4h1.3l0.8,0.5c0,0,0.1-0.1,0.2,0c0.1,0.1,0,0.2,0,0.2s0.1,0,0.2,0.1c0.1,0.1,0.4,0.3,0.4,0.3
	s0.1,0.2,0.2,0.1c0.1,0,0.2,0,0.2,0.1c0.1,0.1,0.2,0.2,0.2,0.2l0.3,0.2l0,0c0,0-0.1,0.1-0.2,0.2c-0.1,0.1-0.1,0.4-0.3,0.1
	s0-0.2,0-0.3c0-0.1-0.2-0.1-0.4-0.1c-0.2,0-0.3,0.2-0.4,0.2c-0.1,0-0.4-0.2-0.4-0.2s-1,0-1.4,0c-0.4,0-0.9,0-0.9,0s-0.4,0.1-0.7,0.2
	c-0.2,0.1-0.2-0.2-0.2-0.2h-1.1l-0.2,0.2c0,0-1.8,1.8-1.9,2c-0.1,0.2-0.1,0.3-0.4,0.3c-0.3,0-1.6,1.6-1.6,1.6s-0.8,0.8-1,1
	c-0.2,0.2-0.2,0.3-0.5,0.5c-0.3,0.1-0.4,0.4-0.4,0.4s0.1,0.1,0.1,0.3c0.1,0.1,6.4,0,6.4,0c0.1,0,0.4-0.1,0.6,0c0.2,0.1,0.4,0,0.4,0
	h3.1c0,0,0.2-0.2,0.3,0c0.1,0.2,2.9,0,2.9,0s1,0.1,1,0c0-0.1,0.2-0.1,0.3,0c0.1,0.1,0.8,0,1,0c0.1,0,0.4,0,0.6,0.1
	c0.2,0.1,0.2-1.6,0.2-1.6v-1.1c0,0-0.1-0.1,0-0.4C111.6,176.7,111.5,176.2,111.5,175.8z"/>
<path class="st20" d="M111.4,157.2c-0.1-0.2,0.3-0.5,0.1-0.6c-0.2-0.1-0.1-1.6-0.1-1.6s0.1-1.1,0.1-1.8c0-0.2-0.1-0.2-0.3-0.1
	l0.3-0.4c0.1-0.9-0.3-1.4-0.3-1.4l0.3-0.3l-0.6,0l-1.5,0c0,0-0.3,0.1-0.4,0c-0.1-0.1-0.2,0-0.3,0s-0.2,0.2-0.3,0.1s-0.4-0.1-0.4-0.1
	c-0.1,0-2.2,0-2.3,0s-0.4,0.2-0.5,0.1c0-0.1-0.3-0.1-0.3-0.1s-0.6,0-0.9,0c-0.1,0-0.4,0-0.9,0.4c-0.3,0-0.6,0-0.8-0.1
	c-0.2-0.1-0.5-0.1-0.8-0.1c0.1-0.1,0.1,0,0-0.2c-0.1-0.3-3.3,0-3.3,0s-1.3,0-1.7-0.1c-0.4-0.1-0.9,0.1-1.1,0.2
	c-0.2,0.1-0.6-0.1-0.9-0.1s-0.5,0.4-0.7,0.2c-0.1-0.1-1.4-0.2-1.4-0.2s0,1.1,0,1.3c0,0.3,0.3,0.2,0.3,0.2s-0.1,0.1-0.3,0.2
	c-0.1,0.1-0.1,3.6,0,3.7c0.1,0.1,0.1,0.4,0,0.7c-0.1,0.3,0,2.6-0.1,3c0,0.4,1-0.6,1.2-0.8c0.2-0.2,0.3-0.6,0.7-1s0.5-0.2,0.7-0.4
	s1.1-1.1,1.4-1.4s0.8-1.1,0.8-1.1l0.3,0l1.5-1.5c0.4,0.2,0.7,0.4,1,0.6c-0.3,0.3-0.4,0.4-0.4,0.5c0,0.2-0.4,0.7-0.5,0.7
	c-0.1,0-0.2,0-0.2,0s-4.8,4.7-4.9,4.9s-0.3,0.6-0.4,0.7c-0.1,0.1-0.3,0-0.7,0.4c-0.4,0.4-0.4,1.2-0.4,1.2s0,4.6,0,4.8s0,0.8,0,1
	c-0.1,0.2,0,0.6,0,1c0,0.4,0.4,0,0.4,0l1.3-1.3c0,0,2-2,2.1-2.1c0.1-0.1,0.4-0.6,0.7-0.7c0.3-0.1,0.2-0.2,0.4-0.4s0.4-0.6,0.5-0.7
	c0.1-0.1,0.5-0.4,0.8-0.6c0.3-0.3,0.8-0.8,0.9-0.9c0.2-0.2,1.7-1.8,1.7-1.8s0.6-0.5,0.7-0.6c0.1-0.1,0.4-0.6,0.5-0.7
	c0.1-0.1,0.4-0.2,0.5-0.3c0.1-0.1,0.3-0.3,0.3-0.6c0.1-0.3,0.3-0.1,0.3-0.1s0.4-0.4,0.7-0.7c0.3-0.3,0.7-0.7,0.7-0.7
	s0.2-0.2,0.4-0.4s0.3-0.3,0.3-0.3c0-0.1,0.1-0.1,0.1-0.2c0.1,0,0.3,0.2,0.7,0.5c0.1,0.1-0.2,0.4-0.1,0.4l0,0c0,0-0.2,0.2-0.1,0.5
	c0.1,0.3-0.4,0-0.4,0l-1.7,1.7c0,0-0.8,0.8-0.9,0.9c-0.1,0.1,0,0.4-0.1,0.6c-0.1,0.1-0.3-0.2-0.3,0c-0.1,0.2-0.4,0.3-0.4,0.3
	s0.2,0.1-1.1,1.1c-1.2,1-1.1,1.1-1.1,1.1s-0.1,0.1-0.3,0.6c-0.1,0.5-0.4,0-0.4,0l-2.1,2.1c0,0-1,1-1.2,1.2c-0.2,0.2,0,0.4-0.4,0.8
	c-0.3,0.4-0.4,0-0.4,0l-1.5,1.5l0.2,0.3c-0.1,0-0.5,0-0.5,0l-0.6,0.6c-0.2,0.2-0.1,0.4-0.1,0.4c-0.3,0-0.5,0.2-0.5,0.2l0,2
	c0,0,0,0.2,0,0.5c0.1,0.3,0,0.3,0,0.3s0,4.5,0,4.8c0,0.3,0.9-0.6,0.9-0.6s0.9-0.9,1-1c0.1-0.1,0-0.4,0.1-0.4c0.1,0,0.3,0,0.3,0
	s2.1-2.1,2.3-2.3c0.2-0.2,0.5-0.8,1.1-1.1c0.6-0.3,1.7-1.7,1.7-1.7s1.7-1.7,1.8-1.8c0.1-0.1,0.3-0.3,0.3-0.6c0-0.3,0.6-0.3,0.6-0.3
	s1.1-1.1,1.4-1.4c0.3-0.3,0-0.6,0.1-0.6c0.1,0.1,0.4,0.1,0.4,0.1l2.8-2.8c0,0,1.2-1.2,1.5-1.5c0.3-0.3,0.1-0.5,0.2-0.5
	c0.1,0,0.5-0.2,0.5-0.2s1.3-1.3,1.6-1.6c0.3-0.3,0.2-1.4,0.2-1.4S111.5,157.4,111.4,157.2z"/>
</svg>
