<?xml version="1.0" encoding="utf-8"?>
<!-- Generator: Adobe Illustrator 26.0.0, SVG Export Plug-In . SVG Version: 6.00 Build 0)  -->
<svg version="1.1" id="Calque_1" xmlns="http://www.w3.org/2000/svg" xmlns:xlink="http://www.w3.org/1999/xlink" x="0px" y="0px"
	 viewBox="0 0 250 236.7" style="enable-background:new 0 0 250 236.7;" xml:space="preserve">
<style type="text/css">
	.st0{fill:#CAF5FC;}
	.st1{fill:#603B19;}
	.st2{fill:#81C5CC;}
	.st3{fill:#7C4628;}
	.st4{fill:#E8B992;}
	.st5{fill:#4D8693;}
	.st6{fill:#113754;}
	.st7{fill:#FFFFFF;}
	.st8{fill:#C15B80;}
	.st9{fill:#682F44;}
	.st10{fill:#D685A6;}
	.st11{fill:none;stroke:#DBA171;stroke-linecap:round;stroke-miterlimit:10;}
	.st12{fill:#7A4913;}
	.st13{opacity:0.65;fill:#E5B241;enable-background:new    ;}
	.st14{fill:#494949;}
	.st15{fill:#707070;}
	.st16{fill:#282827;}
</style>
<g id="corps">
	<path class="st0" d="M212.7,236.7c-11.3-33.5-2.7-63.9-53.1-59.4c-11.1,1-18.9,3.5-24.5,7.3c-4.8-3.7-10.1-6.8-15.6-9.3
		c-41.3-19.4-48.4,10.7-71.1,38.6c-6.2,7.7-8.7,15.4-8.4,22.8L212.7,236.7z"/>
	<circle class="st1" cx="128.7" cy="217.1" r="1.7"/>
	<circle class="st1" cx="128.7" cy="202" r="1.7"/>
	<path class="st2" d="M98.9,192.3l12.3,8.1l16.1-8.1l12.8,9l24.5-11c0,0-24.9-7.8-34.8-7.8s-32.4,4.3-35.2,5.6L98.9,192.3z"/>
	<rect x="16" y="232.9" class="st3" width="211.3" height="3.8"/>
</g>
<g id="tete">
	<path class="st4" d="M220.2,117c-4.1,48.6,16.6,75.4-99.3,74.9c-99.4-0.4-88.1-41.7-84.1-90.3s48.5-84.7,99.1-80.4
		S224.3,68.3,220.2,117z"/>
	<path class="st5" d="M103.3,89.7h5.1c3.3,0,5.9,2.6,5.9,5.9v23.9c0,3.3-2.6,5.9-5.9,5.9h-5.1c-3.3,0-5.9-2.6-5.9-5.9V95.6
		C97.4,92.3,100,89.7,103.3,89.7z"/>
	<path class="st5" d="M138.7,89.7h5.1c3.3,0,5.9,2.6,5.9,5.9v23.9c0,3.3-2.6,5.9-5.9,5.9h-5.1c-3.3,0-5.9-2.6-5.9-5.9V95.6
		C132.8,92.3,135.4,89.7,138.7,89.7z"/>
	<circle class="st6" cx="105.9" cy="108.2" r="6"/>
	<circle class="st6" cx="141.3" cy="108.2" r="6"/>
	<circle class="st7" cx="109.9" cy="103.5" r="4"/>
	<circle class="st7" cx="100.9" cy="114.7" r="2"/>
	<circle class="st7" cx="137.3" cy="114.7" r="2"/>
	<circle class="st7" cx="145.7" cy="103.5" r="4"/>
	<path class="st8" d="M110.4,151.6c0,0,40.6,0.8,47.3-7.6c-5.9,14.9-13,20.9-22.4,21.1S117.3,165.4,110.4,151.6z"/>
	<path class="st9" d="M128.7,151.1c-9.8,0.7-18.3,0.5-18.3,0.5c3.9,7.9,8.4,11.3,13.3,12.7C124.6,160.3,126.1,154.9,128.7,151.1z"/>
	<path class="st10" d="M47,135.5h32.1c0.9,0,1.6,0.7,1.6,1.6v3.1c0,0.9-0.7,1.6-1.6,1.6H47c-0.9,0-1.6-0.7-1.6-1.6v-3.1
		C45.4,136.2,46.1,135.5,47,135.5z"/>
	<path class="st10" d="M174.1,135.5h32.1c0.9,0,1.6,0.7,1.6,1.6v3.1c0,0.9-0.7,1.6-1.6,1.6h-32.1c-0.9,0-1.6-0.7-1.6-1.6v-3.1
		C172.5,136.2,173.2,135.5,174.1,135.5z"/>
	<ellipse class="st4" cx="217.8" cy="118.8" rx="7.5" ry="11.3"/>
	<ellipse class="st4" cx="37.4" cy="118.8" rx="7.5" ry="11.3"/>
	<path class="st11" d="M221.6,115.8c0.1,1.1-0.4,3.8-1.8,3.6s-2.3,2.6-1.8,3.4"/>
	<path class="st11" d="M33.7,115.6c-0.1,1,0.4,3.8,1.8,3.5s2.3,2.7,1.8,3.4"/>
	<path class="st11" d="M136.1,170.5c-1.1,0.9-6.1,0.4-6.5-0.4"/>
	<ellipse class="st4" cx="105.9" cy="125.4" rx="18.3" ry="6.4"/>
	<ellipse class="st4" cx="140.4" cy="125.4" rx="18.3" ry="6.4"/>
	<path class="st12" d="M94.4,78.2c0,0,11.4-5.4,17.1-0.4C109.1,74.4,101.1,71.3,94.4,78.2z"/>
	<path class="st12" d="M150.8,78.7c0,0-11.4-5.3-17.1-0.3C136.1,74.9,144.1,71.8,150.8,78.7z"/>
	<path class="st12" d="M52.8,25.4C51.4,16.5,57.5,0,57.5,0s1.4,16.9,8.4,18.7C64.8,13.5,65,8.1,66.4,3c0,0,5.3,11.7,9,12.5
		c-0.3-3.4-1-7.8,0.4-10.3c1.6,4.2,8.1,9.2,8.9,9.3c0-3.5,0.4-9.2,0.7-9.9c2.2,2.1,7.4,8.5,11,8.7c-1.3-3.3-1.7-4.7-1.1-8.1
		c2,3.1,7.4,6.8,8.8,7c-0.5-2.6-0.6-5.2-0.4-7.8c0,0,7.1,7.6,9.6,8.2c-0.1-2.6,0.2-7.1,0.2-7.1s3.8,7,7,7.3c-0.2-3.1-0.1-6-0.1-6
		s6.7,5.9,9.9,6.6c-0.6-3,0.9-8.3,0.9-8.3s8.2,10.2,9.4,9.4l1.5-8.5c0,0,14,11.7,30.7,15.9c8.7-0.3,10.3-5.5,10.3-5.5s1.4,6.1,0.5,8
		c2.2-0.8,4.3-1.9,6.2-3.2c0,0,2.2,3.4,1.5,5.6c2.6-0.7,5.1-1.8,7.4-3.3c0,0,1.2,5.1-0.4,6.2c6.2,0.3,6.8-1.8,6.8-1.8s1.9,4.1,0,5.4
		c2.4,0.2,4.9,0,7.2-0.8c0,0-0.4,4.8-2.8,5.8c0.9,4.7,13.2,63.1,11.2,72.9c-4.2-4.6-8.2-26.5-18-50.8c-10.1-13.6-12.5-7.8-30.9-14.8
		c-1.5-0.6-3.1-0.5-4.6,0.1h-0.1c-0.2,0.1-0.6-0.1-0.7-0.4c-0.5-1.3-1.7-2.1-3.1-2.2c-2.5-0.3-88.9-4.5-101.8,9.2
		C45.3,68.1,39.8,88.2,39.8,88.2S34.1,20.9,42,3.8C50.9,19.3,52.8,25.4,52.8,25.4z"/>
	<path class="st13" d="M84.5,111.4h35.2c2.5,0,4.5,2,4.5,4.5v6.8c0,2.5-2,4.5-4.5,4.5H84.5c-2.5,0-4.5-2-4.5-4.5v-6.8
		C80,113.4,82,111.4,84.5,111.4z"/>
	<path class="st13" d="M132.1,111.4h35.2c2.5,0,4.5,2,4.5,4.5v6.8c0,2.5-2,4.5-4.5,4.5h-35.2c-2.5,0-4.5-2-4.5-4.5v-6.8
		C127.6,113.4,129.6,111.4,132.1,111.4z"/>
	<path class="st14" d="M166.4,111.2h-33.3c-1.8,0-3.5,0.9-4.6,2.4h-5.2c-1.1-1.5-2.8-2.4-4.6-2.4H85.5c-3-0.1-5.4,2.3-5.5,5.3
		c0,0,0,0.1,0,0.1v1c0-3,2.5-5.5,5.5-5.5h33.2c3,0,5.5,2.5,5.5,5.5v-1c0-0.8-0.2-1.7-0.6-2.4h4.6c-0.4,0.8-0.6,1.6-0.6,2.4v1
		c0-3,2.5-5.5,5.5-5.5l0,0h33.3c3,0,5.5,2.5,5.5,5.5v-1C171.8,113.6,169.4,111.2,166.4,111.2z"/>
</g>
<g id="action">
	<path class="st15" d="M193.2,167.9H64.1c-3.3-0.1-6,2.6-6.1,5.9c0,0,0,0,0,0l1.8,53.1c0.1,3.3,2.8,6,6.1,5.9c0,0,0,0,0,0h126.5
		c3.3,0.1,6.1-2.6,6.2-5.9l0.8-53.1c-0.1-3.3-2.8-6-6.1-5.9C193.3,167.9,193.2,167.9,193.2,167.9z"/>
	<path class="st16" d="M55.9,232.9c0,0-0.2-11.9-4.8-12.5s-16.2,2.2-16.2,2.2s-3,6.4-3,10.3H55.9z"/>
	<path class="st4" d="M41.6,216.8c-4.2,1.5-6.5,3.6-7.7,5.6l0,0c-2,2.4-1.7,4.6-1.6,7.5s9.9-0.4,11.9-0.8s-0.6-4.2-1.6-6.1
		c2,0.8,9.8,3.3,11.5,0.7S44.3,215.8,41.6,216.8z"/>
	<path class="st7" d="M144.3,219.3v-3.5L142,216c-0.1,0-0.9-0.4-1.4-0.2h-0.5l-1.7-0.9h-0.2v-0.2l-0.5-0.3l-1.7-0.7v-0.3l-0.5-0.3
		h0.9l0.2-0.5l0.5,0.4h2.5l2.1-0.2l2.4,0.2c0.4,0,0.2-1.4,0.2-1.4s-0.3,0.2-0.2-0.1c0-0.1,0.1-0.3,0.2-0.4v-4.2c0-0.4,0.2-0.4,0-0.9
		s0-0.6,0-0.6v-2.1c0,0-0.1-1.4-0.1-2s0.1-1.6,0.1-1.6v-1.4l-0.4-0.5l-2.2,2.2l-1.7,1.7c0,0-1.7,1.8-1.9,1.9l-0.2,0.6l-0.8,0.4
		c-0.2,0.2-0.3,0.4-0.3,0.7c0,0.3-0.2,0.2-0.3,0.4c-0.1,0.1-0.3,0.1-0.4,0l-2.3,2.3c-0.3,0.3-0.1,0.7-0.2,0.7h-0.5l-1.5,1.6
		l-0.8,0.8l-0.3,0.2l0,0l-1.2,1.2c-0.1,0.2-0.2,0.5-0.2,0.7h2.3l1.3,0.8c0,0,0.1-0.2,0.3,0s0,0.3,0,0.3s0.1-0.1,0.3,0.1l0.7,0.5
		c0.1,0.1,0.2,0.2,0.3,0.2c0.1,0,0.2,0,0.3,0.2l0.3,0.2l0.6,0.4l0,0l-0.3,0.2c-0.1,0.2-0.1,0.7-0.4,0.3s0-0.3-0.1-0.5h-0.5
		c-0.3,0-0.5,0.3-0.6,0.4s-0.7-0.4-0.7-0.4h-3.8l-1.1,0.3c-0.4,0.2-0.3-0.3-0.3-0.3H126l-0.3,0.3l-3.2,3.3c-0.3,0.4-0.1,0.5-0.6,0.6
		s-2.7,2.6-2.7,2.6l-1.7,1.7c-0.3,0.3-0.3,0.5-0.7,0.8c-0.3,0.1-0.5,0.3-0.7,0.6l0.2,0.4c0.1,0.2,10.5,0,10.6,0
		c0.4-0.1,0.7-0.1,1.1,0c0.4,0.2,0.6,0,0.6,0h5.2c0,0,0.4-0.3,0.5,0s4.8,0,4.8,0s1.7,0.2,1.7,0s0.3-0.2,0.5,0s1.4,0,1.6,0
		c0.3,0,0.7,0,1,0.2c0.4,0.1,0.4-2.6,0.4-2.6v-1.9c0,0-0.2-0.2,0-0.6C144.4,220.6,144.4,220,144.3,219.3z"/>
	<path class="st7" d="M144.2,188.6c-0.1-0.3,0.5-0.8,0.1-1.1s-0.1-2.7-0.1-2.7s0.2-1.8,0.2-2.9s-0.3-0.3-0.6-0.1l0.5-0.7
		c0.1-0.8-0.1-1.6-0.5-2.3l0.6-0.5h-3.5c0,0-0.5,0.2-0.6,0s-0.4,0-0.6,0s-0.3,0.3-0.5,0.2l-0.7-0.2h-3.8c-0.2,0-0.6,0.3-0.7,0.2
		s-0.4-0.2-0.4-0.2h-1.5c-0.6,0.1-1.1,0.3-1.5,0.7h-1.3c-0.4-0.2-0.9-0.3-1.3-0.2c0.2-0.2,0.1,0,0-0.4s-5.4,0-5.4,0h-2.8
		c-0.6-0.1-1.3,0-1.9,0.3c-0.4,0.2-1-0.2-1.5-0.2s-0.8,0.6-1.1,0.4c-0.8-0.2-1.5-0.3-2.3-0.4v2.2c0,0.5,0.5,0.3,0.5,0.3l-0.4,0.3
		c-0.3,0.1-0.2,5.9,0,6.1c0.1,0.4,0.1,0.8-0.1,1.2c-0.2,0.5,0,4.3-0.1,5s1.8-1.1,2.1-1.4c0.3-0.6,0.7-1.1,1.1-1.6
		c0.7-0.6,0.8-0.3,1.2-0.7l2.3-2.3c0.5-0.6,0.9-1.2,1.2-1.8h0.5l2.5-2.5l1.7,1c-0.5,0.5-0.7,0.7-0.7,0.9c-0.2,0.4-0.5,0.8-0.8,1.1
		h-0.4l-8.1,8c-0.2,0.2-0.5,1-0.6,1.1c-0.5,0.1-0.9,0.3-1.2,0.7c-0.4,0.6-0.7,1.2-0.7,1.9v9.6c-0.1,0.5-0.1,1.1,0,1.6
		c0,0.7,0.6,0,0.6,0l2.1-2.1l3.4-3.4c0.3-0.5,0.6-0.8,1.1-1.1c0.4-0.2,0.4-0.4,0.6-0.7c0.3-0.3,0.6-0.6,0.8-1
		c0.1-0.2,0.9-0.6,1.4-1.1l1.5-1.5l2.7-3l1.2-1c0.3-0.3,0.6-0.7,0.8-1.1l0.9-0.5c0.3-0.2,0.4-0.6,0.5-0.9c0.1-0.5,0.5-0.2,0.5-0.2
		c0.4-0.3,0.8-0.7,1.1-1.1l1.2-1.1l0.7-0.8l0.5-0.4l0.2-0.4c0.4,0.2,0.8,0.5,1.1,0.9c0.1,0.1-0.2,0.7-0.1,0.8l0,0
		c-0.2,0.2-0.3,0.5-0.2,0.8c0.1,0.5-0.6,0-0.6,0l-2.8,2.7l-1.5,1.5c-0.2,0.2,0.1,0.7-0.2,0.9s-0.4-0.3-0.5,0s-0.7,0.5-0.7,0.5
		s0.3,0.1-1.7,1.7s-1.9,1.9-1.9,1.9c-0.2,0.3-0.3,0.6-0.4,1c-0.2,0.8-0.6,0-0.6,0l-3.5,3.5l-2,2c-0.3,0.2,0,0.6-0.6,1.3
		s-0.7,0-0.7,0l-2.5,2.5l0.3,0.4h-0.8l-0.9,0.9c-0.4,0.4-0.2,0.7-0.2,0.7L113,212v3.4c-0.1,0.3,0,0.6,0.1,0.8
		c0.2,0.5-0.1,0.5-0.1,0.5s0.1,7.5,0.1,8s1.5-1.1,1.5-1.1l1.5-1.6c0.2-0.1,0-0.7,0.2-0.6s0.5,0,0.5,0l3.8-3.8
		c0.4-0.4,0.8-1.4,1.9-1.9c1.1-0.8,2-1.7,2.8-2.8l3-3c0.1-0.2,0.5-0.5,0.5-1s0.9-0.5,0.9-0.5l2.4-2.3c0.2-0.3,0.3-0.7,0.1-1h0.8
		l4.7-4.7l2.5-2.5c0.4-0.5,0.1-0.8,0.3-0.9l0.8-0.2l2.7-2.7c0.5-0.5,0.3-2.3,0.3-2.3C144.4,190.7,144.3,189.7,144.2,188.6z"/>
</g>
</svg>
