<svg xmlns="http://www.w3.org/2000/svg" viewBox="0 0 160 250"><defs><style>.cls-1{fill:#2d1d10;}.cls-2{fill:#603b19;}.cls-3{fill:#caf5fc;}.cls-4{fill:#193d68;}.cls-5{fill:#8c9eaf;}.cls-6{fill:#81c5cc;}.cls-7{fill:#e8b992;}.cls-8{fill:#4d8693;}.cls-9{fill:#113754;}.cls-10{fill:#fff;}.cls-11{fill:#c15b80;}.cls-12{fill:#682f44;}.cls-13{fill:#d685a6;}.cls-14,.cls-16{fill:none;stroke-linecap:round;stroke-miterlimit:10;}.cls-14{stroke:#dba171;}.cls-15{fill:#7a4913;}.cls-16{stroke:#dba179;}</style></defs><g id="corps"><path class="cls-1" d="M54.2,235.2s-19.7,7.7-20.7,11.5c-.1.5.5,2.9,1.6,3,16.6,1.4,38.9-1.6,39.1-9.2S54.2,235.2,54.2,235.2Z"/><path class="cls-2" d="M54.4,234.6s-16.3,6.7-20.2,10.6c-1.2,1.2-.8,3.2,1.1,3.3,16.2,1.1,38.9-1.5,39.1-8.8S54.4,234.6,54.4,234.6Z"/><path class="cls-1" d="M110.3,235.2s19.7,7.7,20.6,11.5c.1.5-.4,2.9-1.5,3-16.7,1.4-39-1.6-39.1-9.2S110.3,235.2,110.3,235.2Z"/><path class="cls-2" d="M110.1,234.6s16.2,6.7,20.1,10.6c1.2,1.2.8,3.2-1,3.3-16.3,1.1-39-1.5-39.1-8.8S110.1,234.6,110.1,234.6Z"/><path class="cls-3" d="M119.9,201.7c7.3,29-15,39.4-36.6,39.4s-48.6-12.4-41.8-39.4c7.1-28.6,1.8-53.4,39.2-53.4C122.6,148.3,112.6,173.1,119.9,201.7Z"/><path class="cls-4" d="M121.3,211.2c-38,2.3-65.7.4-80.9-1.3.1,21.3,23.5,31.2,42.9,31.2S122,233,121.3,211.2Z"/><path class="cls-2" d="M64.1,214l-15.7-.8c0,1.3.3,3.9.5,5.5,4.6.4,9.8.7,15.3.9A26.9,26.9,0,0,1,64.1,214Z"/><path class="cls-2" d="M75.7,214.5a1.4,1.4,0,0,0-1.4,1.4v1.2h3.2a.7.7,0,0,1,0,1.4H74.3v1.4H94.4a48,48,0,0,0,.5-5.2c-6,0-12.4-.1-18.5-.3Z"/><path class="cls-2" d="M97.9,220l13.1-.2a51.1,51.1,0,0,0,.5-5.5c-4.1.3-8.6.4-13.4.5A30.5,30.5,0,0,1,97.9,220Z"/><path class="cls-2" d="M72.4,214.3l-5.2-.2a39.7,39.7,0,0,0,.4,5.6H72v-4A2.8,2.8,0,0,1,72.4,214.3Z"/><path class="cls-2" d="M114.7,214.1a27,27,0,0,1-.3,5.6l6-.2a37.4,37.4,0,0,0,.8-6.2A55,55,0,0,1,114.7,214.1Z"/><path class="cls-2" d="M45.3,213l-4.8-.4a22.7,22.7,0,0,0,1.1,5.3l3.8.4A32,32,0,0,1,45.3,213Z"/><path class="cls-5" d="M75.7,221.1a1.4,1.4,0,0,1-1.4-1.4v-3.8a1.4,1.4,0,0,1,1.4-1.4H87.9a2.6,2.6,0,0,0-2.3-1.4h-11a2.7,2.7,0,0,0-2.6,2.7v3.9a2.7,2.7,0,0,0,2.6,2.7h11a2.5,2.5,0,0,0,2.3-1.3Z"/><circle class="cls-2" cx="80.9" cy="178.6" r="1.4"/><circle class="cls-2" cx="80.9" cy="166.3" r="1.4"/><circle class="cls-2" cx="80.9" cy="193.3" r="1.4"/><circle class="cls-2" cx="80.9" cy="208.1" r="1.4"/><path class="cls-6" d="M56.5,158.4l10,6.5,13.2-6.5,10.5,7.3,20-9s-20.4-6.4-28.4-6.4-26.6,3.6-28.9,4.6Z"/></g><g id="tete"><path class="cls-7" d="M155.8,96.6c-3.4,39.9,13.6,61.8-81.3,61.4C-7,157.7,2.3,123.9,5.6,84S45.3,14.7,86.8,18.2,159.1,56.8,155.8,96.6Z"/><rect class="cls-8" x="55.3" y="74.3" width="13.9" height="29.26" rx="5.9"/><rect class="cls-8" x="84.2" y="74.3" width="13.9" height="29.26" rx="5.9"/><circle class="cls-9" cx="62.2" cy="89.4" r="4.9"/><circle class="cls-9" cx="91.2" cy="89.4" r="4.9"/><circle class="cls-10" cx="65.5" cy="85.6" r="3.3"/><circle class="cls-10" cx="58.1" cy="94.8" r="1.6"/><circle class="cls-10" cx="87.9" cy="94.8" r="1.6"/><circle class="cls-10" cx="94.8" cy="85.6" r="3.3"/><path class="cls-11" d="M65.9,125s33.2.7,38.7-6.3C99.8,131,94,135.8,86.2,136.1S71.5,136.3,65.9,125Z"/><path class="cls-12" d="M80.9,124.6c-8.1.5-15,.4-15,.4,3.2,6.5,6.9,9.2,10.9,10.4C77.5,132.1,78.8,127.7,80.9,124.6Z"/><rect class="cls-13" x="12.6" y="111.8" width="28.9" height="5.19" rx="1.6"/><rect class="cls-13" x="116.7" y="111.8" width="28.9" height="5.19" rx="1.6"/><ellipse class="cls-7" cx="153.9" cy="98.2" rx="6.1" ry="9.3"/><ellipse class="cls-7" cx="6.1" cy="98.2" rx="6.1" ry="9.3"/><path class="cls-14" d="M156.9,95.7c.2.9-.3,3.1-1.4,2.9s-1.9,2.2-1.5,2.8"/><path class="cls-14" d="M3.1,95.5c-.2.8.3,3.1,1.4,2.9s1.9,2.2,1.5,2.8"/><path class="cls-14" d="M86.9,140.5c-.9.7-5,.3-5.3-.3"/><ellipse class="cls-7" cx="62.2" cy="103.5" rx="15" ry="5.2"/><ellipse class="cls-7" cx="90.4" cy="103.5" rx="15" ry="5.2"/><path class="cls-15" d="M52.8,64.9s9.3-4.4,14-.3C64.8,61.7,58.3,59.2,52.8,64.9Z"/><path class="cls-15" d="M99,65.3s-9.3-4.4-14-.3C86.9,62.2,93.5,59.6,99,65.3Z"/><path class="cls-15" d="M18.5,19.4c0-5.9,2.5-13.9,3.6-17.2a.3.3,0,0,1,.6.1c.5,3.5,2,11.9,6.1,13.7.3.1.6-.1.5-.4a28.1,28.1,0,0,1,.3-11.4.4.4,0,0,1,.7-.1c1,2.2,4,7.9,6.4,9.2.2.1.5-.1.4-.3-.2-2.4-.5-5.2.1-7.2a.3.3,0,0,1,.6,0c1.5,2.8,5.1,5.8,6.5,6.7a.3.3,0,0,0,.5-.3,60,60,0,0,1,.5-7,.3.3,0,0,1,.5-.2c1.9,2,5.3,6,8,6.6a.3.3,0,0,0,.4-.4,9,9,0,0,1-.8-5.3.3.3,0,0,1,.6-.2,19.9,19.9,0,0,0,6.1,4.9.3.3,0,0,0,.5-.4,17.6,17.6,0,0,1-.2-5c0-.3.3-.4.6-.2s4.9,5,6.8,6c.2.1.5-.1.5-.4a27.4,27.4,0,0,1,.1-4.1.3.3,0,0,1,.6-.2c.9,1.5,2.9,4.4,4.7,4.9.2.1.5-.1.4-.3S74,8,74,7.1a.4.4,0,0,1,.6-.2c1.4,1.1,4.8,4,7,4.8.2.1.5-.1.5-.4a18.5,18.5,0,0,1,.6-5.6c.1-.3.4-.3.6-.1s5.4,6.4,6.9,7.1.4-.1.4-.3l1.2-6.1c0-.2.3-.3.5-.2,2.2,1.8,12.5,9.6,24.6,12.6h.2c5-.1,7.1-2.3,7.9-3.6s.6-.2.6.1a16.9,16.9,0,0,1,.4,5c0,.3.2.5.5.4a23,23,0,0,0,4.1-2.2c.2-.1.4-.1.5.1a6.9,6.9,0,0,1,1.1,3.8c0,.3.2.5.4.4a16.2,16.2,0,0,0,5.1-2.4.4.4,0,0,1,.6.3c.1.9.5,3,0,4.1a.3.3,0,0,0,.3.5c2.8,0,4-.6,4.5-1.1a.4.4,0,0,1,.6.2c.3.8.7,2.4.1,3.4s.1.4.3.5a19.9,19.9,0,0,0,4.7-.6c.3-.1.5.1.5.4s-.7,3.3-2,4.1a.5.5,0,0,0-.2.4c1,5.1,10.2,48.8,9.2,58.6,0,.3-.4.4-.6.1-3.3-4.8-6.6-22-14.2-40.9h0c-8.3-11-10.3-6.4-25.2-11.9a5.8,5.8,0,0,0-4.1.1c-.2,0-.3,0-.3-.1h-.1a3,3,0,0,0-2.6-2c-2.1-.2-72.8-3.7-83.4,7.5S10.1,66.9,8.6,71.4a.4.4,0,0,1-.7-.1C7.2,62,4.1,17.9,9.6,4.6c.1-.3.4-.3.6,0,4.4,7.7,6.6,12.5,7.7,14.9C18,19.9,18.5,19.8,18.5,19.4Z"/></g><g id="action"><path class="cls-7" d="M19.1,176.4c-.3-5.7,6.3-5.3,11.2-3.8-.5-3.6-1.3-11,1.7-12.3s8.6,12.6,8,17.2l1.3,10.6c.1,12.2-10.7,6.4-16.5,7.3S19.5,183.5,19.1,176.4Z"/><path class="cls-16" d="M30.8,172.9c1.1-.1,2.6,5.3.7,5.1s1.7-.1,2,4.3c.2,1.7-1.2,2-2.1,1.9s-.1.2,0,.3a7.9,7.9,0,0,1,2.7,2.3,2.6,2.6,0,0,1-1.5,3.8.4.4,0,0,0-.2.7c1.1,1.2,2.8,3.9,1,4"/><path class="cls-16" d="M31.6,190.6s-6.8-.6-9.4-.6"/><path class="cls-16" d="M30.5,184.3s-7.1-.7-8.3-.4"/><path class="cls-16" d="M30.6,177.8s-7.4-.9-8.7-.4"/></g></svg>