<?xml version="1.0" encoding="utf-8"?>
<!-- Generator: Adobe Illustrator 27.0.0, SVG Export Plug-In . SVG Version: 6.00 Build 0)  -->
<svg version="1.1" id="Calque_1" xmlns="http://www.w3.org/2000/svg" xmlns:xlink="http://www.w3.org/1999/xlink" x="0px" y="0px"
	 viewBox="0 0 566.9 708.7" style="enable-background:new 0 0 566.9 708.7;" xml:space="preserve">
<style type="text/css">
	.st0{fill:#003B36;}
	.st1{fill:#FFFFFF;}
</style>
<rect class="st0" width="566.9" height="708.7"/>
<path class="st1" d="M448.1,526.5c-0.1-6.7,0.1-9.7,0-13.4c-0.1-3.7,0.1-21.7,0.1-21.7s-22.1,1.9-23.6,1.9c-1.5,0-9.3-3.7-14.2-1.9
	c-1,0.4-2.7,0.6-4.8,0.7l-17.7-8.3l-1.7-0.3l-0.8-2l-5.3-3.4l-16.9-7.3v-2.2l-4.9-3.9h9l1.3-4.3l5.1,3.7c0,0,23.1,0.6,25.4,0.6
	c2.2,0,18.3-0.6,21.2-1.3c3-0.7,19.8,1.3,24.2,1.3s2.8-14,2.8-14s-3.2,1.9-2.1-1.1c1.1-3,2.1-3.4,2.1-3.4v-19c0,0,0-19.8,0-23.9
	c0-4.1,2-4.5,0-9.3s0-6.2,0-6.2v-21.1c0,0-1.7-13.8-1.7-20.1s1.7-16,1.7-16c0-3.7,0-14.2,0-14.2l-4.9-5.4l-21.9,22.1l-16,16.1
	c0,0-17.7,17.8-19.1,19.3c-1.5,1.5-2.4,5.9-2.4,5.9s-5.8,2.3-7.6,4.2c-1.9,1.9-3.7,3.7-3.6,6.8c0.1,3.1-1.5,2.3-3.2,4s-4,0-4,0
	s-20.6,20.8-23,23.2c-2.4,2.4-0.7,6.7-2.2,7.1c-1.5,0.4-4.9,0-4.9,0l-15.4,15.5c0,0-5.4,5.4-8.2,8.2c-2.4,2.4-2.6,2.6-2.6,2.6l0,0
	c0,0-9.7,9.7-12.1,12.2c-2.4,2.4-1.6,6.4-1.6,6.4h22.3l13.4,8.1c0,0,1.7-1.4,3.4,0c1.7,1.4,0,3.1,0,3.1s1.1-0.3,3.1,1.4s6.7,5,6.7,5
	s1.4,2.5,3.1,2.2c1.7-0.3,2.5,0.3,3.6,1.4c1.1,1.1,3.1,2.8,3.1,2.8l5.8,3.2l0,0c-0.8,0.7-2,1.9-3,2.9c-1.5,1.6-0.9,6.9-4.6,2.4
	c-3.7-4.5,0.2-2.6-0.2-4.5c-0.4-1.9-3.4-1.5-6-1.5c-2.6,0-4.5,3.1-6,3.8c-1.5,0.7-6.3-3.8-6.3-3.8s-16.4,0-23.9,0
	c-7.5,0-14.7,0-14.7,0s-7,1.6-11.1,3.4c-4.1,1.8-3-3.4-3-3.4h-17.5l-3.4,3.4c0,0-30.2,29.9-32.4,33.6c-2.2,3.7-1.1,4.8-6,5.6
	c-4.8,0.7-27.2,26.1-27.2,26.1S180,574.2,177,577.2c-3,3-3,5.6-7.8,7.8c-4.8,2.2-6.5,6.1-6.5,6.1s0.9,2.4,2.1,4.5
	c1.1,2,106.3,0,107.4,0c1.1,0,7.1-2.4,10.8,0c3.7,2.4,6.5,0,6.5,0h52.1c0,0,4.1-2.8,5.6,0c1.5,2.8,48.5,0,48.5,0s17.1,2.1,17.1,0
	c0-2.1,2.6-2,4.8,0c2.2,2,14.2,0,16.4,0c2.2,0,6.7,0,10.1,1.7c3.4,1.7,4.1-26.1,4.1-26.1v-19c0,0-1.8-2.2,0-6.3
	C449.9,541.7,448.2,533.2,448.1,526.5z"/>
<path class="st1" d="M447.1,216.3c-1.1-3.4,4.7-8.4,1-10.6c-3.6-2.2-1-27.4-1-27.4s1.1-18.5,1.1-29.6c0-2.9-2.1-2.9-5.3-1.3l5.1-7
	c0.9-15.3-5.1-22.6-5.1-22.6l5.3-5.3l-9.6,0l-24.9,0c0,0-5,2.1-7,0c-2-2.1-3.6,0-5.3,0c-1.7,0-3.4,3.2-5.3,1.8
	c-2-1.4-5.9-1.8-6.7-1.8s-36.1,0-38.3,0c-2.2,0-7,2.9-7.5,1.6c-0.6-1.4-4.5-1.6-4.5-1.6s-9.2,0-15.1,0c-2,0-6.8,0.5-14.5,7.1
	c-4.9,0.2-9.9-0.2-13.5-1.6c-3.4-1.4-8.1-1.9-12.9-1.9c1.3-1.6,1.2-0.1-0.3-3.6c-2.2-5.4-54.8,0-54.8,0s-21.8,0-28-0.9
	c-6.1-0.9-15.1,0.9-19,3.1c-3.9,2.2-10.1-2.2-15.1-2.1c-5,0-9,6-11.2,3.8c-2.2-2.2-23.6-3.8-23.6-3.8s0,17.8,0,22.3
	c0,4.5,5.2,3,5.2,3s-2.2,1-4.5,2.6c-2.2,1.7-1.7,59.8,0,61.5c1.7,1.7,1.1,7.3-0.6,12.3c-1.7,5-0.1,43.6-0.8,50.9
	c-0.7,7.3,17.5-10.8,20.5-13.9c3.1-3.1,4.9-9.6,11.6-16.3c6.7-6.7,8.2-3.5,12.1-7.4c3.9-3.9,17.9-17.9,22.9-22.9
	c5-5,12.7-18.3,12.7-18.3l4.9,0.7l24.9-24.9c6,2.6,12,6.8,17.2,10.2c-4.5,4.8-6.6,7.4-6.8,8.5c-0.4,2.7-7.3,11.5-8.4,11.1
	c-1.1-0.3-3.6,0-3.6,0s-80.6,79.1-82.6,81.1c-2,2-4.7,10.1-6.1,11.2s-5.7,0.6-12,6.9c-6.3,6.3-6.8,19.4-6.8,19.4s-0.1,76.3,0.1,80.7
	c0.3,4.5,0.3,12.9-0.6,16.2c-0.8,3.4,0.4,9.2,0.4,16.2c0,7,6,0,6,0l21-21c0,0,33.3-33.3,34.3-34.3s7.4-9.9,11.7-11.7
	c4.3-1.8,3.9-3.9,6.3-6.3c2.4-2.4,6.7-9.2,7.8-10.9c1.1-1.7,8.9-5.9,13.7-10.7c4.8-4.8,12.6-12.6,15.5-15.5c2.9-2.9,27.6-30,27.6-30
	s10.3-7.9,12.1-9.7c1.8-1.8,7.2-10.5,8.3-11.6c1.1-1.1,7.2-3.9,8.4-5.1c1.1-1.1,4.5-4.5,5.6-9.5c1.1-5,5-1.1,5-1.1
	s6.4-6.4,11.2-11.2c4.8-4.8,12-12,12-12s3.5-3.5,7.3-7.3s4.8-4.8,4.8-4.8c0.4-1,1.1-2.1,1.8-3.2c1.8,0.5,5.2,2.8,11.5,9.1
	c1,1-2.7,6.6-1.8,7.5l0,0c0,0-3.1,3.1-1.8,8.1c1.3,5-6.3,0-6.3,0l-28,27.9c0,0-13.4,13.4-15.1,15.1c-1.7,1.7,0.8,7-1.4,9.2
	c-2.2,2.2-4.2-3.6-5.4,0c-1.3,3.6-6.9,4.5-6.9,4.5s2.8,1.7-17.7,17.6c-20.5,15.9-18.8,18.7-18.8,18.7s-2.2,2.2-4.4,10.3
	c-2.2,8.1-6,0-6,0l-35.3,35.2c0,0-17.4,17.3-20.2,20.1c-2.8,2.8-0.6,6.6-6.2,13.4c-5.6,6.8-7.2,0-7.2,0l-25.3,25.2l2.8,4.7
	c-1-0.8-7.7,0.2-7.7,0.2l-9.2,9.2c-3.9,3.9-1.4,7-1.4,7c-4.5,0.6-8.5,2.8-8.5,2.8l-0.7,34.1c0,0-0.8,3.9,0.7,8.4
	c1.5,4.5-0.7,4.5-0.7,4.5s0.7,75.5,0.7,80.5c0,5,14.8-10.5,14.8-10.5s14.3-14.3,15.9-15.9s-0.4-7.1,1.3-6.4c1.7,0.7,5.1,0,5.1,0
	s35.2-35.2,38.9-38.9c3.6-3.6,8-13.2,18.7-18.7s28.8-28.8,28.8-28.8s28.2-28.2,29.9-29.9c1.7-1.7,5.3-5.3,5.6-10.2
	c0.3-4.9,9.2-4.6,9.2-4.6s18.5-18.5,23.8-23.8c5.3-5.3-0.1-10.7,1.6-9.6c1.7,1.1,7.1,1,7.1,1l47.5-47.5c0,0,20.7-20.7,25.4-25.4
	c4.8-4.8,1-8.5,3.2-9.1c2.2-0.6,8.4-2.6,8.4-2.6s21.7-21.7,27-27c5.3-5.3,3.6-23,3.6-23S448.3,219.7,447.1,216.3z"/>
</svg>
