<?xml version="1.0" encoding="utf-8"?>
<!-- Generator: Adobe Illustrator 26.0.0, SVG Export Plug-In . SVG Version: 6.00 Build 0)  -->
<svg version="1.1" id="Calque_1" xmlns="http://www.w3.org/2000/svg" xmlns:xlink="http://www.w3.org/1999/xlink" x="0px" y="0px"
	 viewBox="0 0 566.93 708.66" style="enable-background:new 0 0 566.93 708.66;" xml:space="preserve">
<style type="text/css">
	.st0{fill:#FFFFFF;}
</style>
<path class="st0" d="M516.26,600.93c-0.2-9.6,0.2-13.87,0-19.21c-0.2-5.33,0.2-31.06,0.2-31.06s-31.65,2.78-33.79,2.78
	c-2.13,0-13.34-5.33-20.27-2.78c-1.4,0.52-3.88,0.83-6.93,0.99l-25.39-11.87l-2.4-0.4l-1.2-2.8l-7.6-4.8l-24.21-10.4v-3.2
	l-7.01-5.55h12.85l1.82-6.13l7.25,5.34c0,0,33.08,0.79,36.28,0.79c3.2,0,26.14-0.79,30.41-1.86c4.27-1.07,28.28,1.86,34.68,1.86
	c6.4,0,4.01-20,4.01-20s-4.54,2.67-2.94-1.6c1.6-4.27,2.94-4.8,2.94-4.8v-27.21c0,0,0-28.28,0-34.15c0-5.87,2.93-6.4,0-13.34
	c-2.93-6.94,0-8.82,0-8.82v-30.13c0,0-2.41-19.74-2.41-28.81c0-9.07,2.41-22.94,2.41-22.94c0-5.34,0-20.27,0-20.27l-6.97-7.77
	l-31.37,31.59l-22.86,23.02c0,0-25.26,25.43-27.38,27.58c-2.13,2.14-3.46,8.5-3.46,8.5s-8.24,3.28-10.89,5.96
	c-2.66,2.68-5.32,5.35-5.11,9.76c0.2,4.41-2.13,3.26-4.58,5.77c-2.45,2.51-5.73,0-5.73,0s-29.5,29.71-32.96,33.2
	c-3.46,3.48-1.01,9.65-3.15,10.17c-2.13,0.52-6.95,0-6.95,0l-22.06,22.22c0,0-7.71,7.77-11.69,11.78c-3.4,3.42-3.71,3.74-3.73,3.75
	c0,0,0,0,0,0s-13.82,13.92-17.28,17.4c-3.46,3.48-2.31,9.15-2.31,9.15h31.97l19.21,11.55c0,0,2.4-2,4.8,0c2.4,2,0,4.4,0,4.4
	s1.6-0.4,4.4,2c2.8,2.4,9.6,7.2,9.6,7.2s2,3.6,4.4,3.2c2.4-0.4,3.6,0.4,5.2,2c1.6,1.6,4.4,4,4.4,4l8.32,4.62l0,0
	c-1.12,1.01-2.92,2.68-4.28,4.18c-2.13,2.35-1.26,9.86-6.6,3.46c-5.34-6.4,0.22-3.69-0.32-6.38c-0.53-2.69-4.82-2.2-8.56-2.2
	c-3.73,0-6.4,4.38-8.54,5.39c-2.13,1.01-9.07-5.39-9.07-5.39s-23.48,0-34.15,0c-10.67,0-20.99,0-20.99,0s-9.96,2.25-15.83,4.84
	c-5.87,2.6-4.27-4.84-4.27-4.84h-25.1l-4.85,4.84c0,0-43.15,42.76-46.35,48.09c-3.2,5.34-1.6,6.94-8.54,8
	c-6.94,1.07-38.95,37.35-38.95,37.35s-19.74,20.27-24.01,24.54c-4.27,4.27-4.27,8-11.2,11.21c-6.94,3.2-9.34,8.8-9.34,8.8
	s1.34,3.48,2.94,6.39c1.6,2.92,152.06,0,153.66,0c1.6,0,10.14-3.45,15.47,0c5.34,3.45,9.27,0,9.27,0h74.5c0,0,5.87-3.99,8,0
	c2.13,3.99,69.36,0,69.36,0s24.54,2.95,24.54,0c0-2.95,3.74-2.92,6.94,0c3.2,2.92,20.27,0,23.48,0c3.2,0,9.6,0,14.41,2.42
	c4.8,2.42,5.84-37.35,5.84-37.35v-27.21c0,0-2.64-3.2,0-9.07C518.9,622.81,516.46,610.54,516.26,600.93z"/>
<path class="st0" d="M514.96,157.12c-1.6-4.8,6.67-12,1.5-15.21c-5.17-3.2-1.5-39.22-1.5-39.22s1.6-26.41,1.6-42.42
	c0-4.14-3.06-4.13-7.6-1.86c0,0,7.31-10.07,7.31-10.07c1.31-21.95-7.31-32.31-7.31-32.31l7.6-7.6l-13.74-0.03L467.2,8.44
	c0,0-7.2,3.02-10,0c-2.8-3.02-5.2,0-7.6,0c-2.4,0-4.8,4.62-7.6,2.62c-2.8-2-8.4-2.62-9.6-2.62s-51.62,0-54.82,0
	c-3.2,0-10,4.22-10.8,2.22c-0.8-2-6.4-2.22-6.4-2.22s-13.21,0-21.61,0c-2.84,0-9.74,0.75-20.8,10.22
	c-7.08,0.24-14.14-0.25-19.26-2.32c-4.92-1.99-11.62-2.67-18.39-2.69c1.81-2.34,1.65-0.18-0.37-5.21
	c-3.1-7.73-78.43-0.03-78.43-0.03s-31.21,0-40.02-1.31c-8.8-1.31-21.61,1.31-27.21,4.39c-5.6,3.08-14.41-3.08-21.61-3.05
	c-7.2,0.03-12.81,8.62-16.01,5.42c-3.2-3.2-33.82-5.45-33.82-5.45s0,25.45,0,31.86c0,6.4,7.41,4.24,7.41,4.24s-3.2,1.36-6.4,3.76
	c-3.2,2.4-2.4,85.64,0,88.04c2.4,2.4,1.6,10.4-0.8,17.61c-2.4,7.2-0.21,62.43-1.21,72.83c-1.01,10.4,24.98-15.45,29.39-19.85
	s7.04-13.77,16.65-23.37s11.77-5.04,17.37-10.64c5.6-5.6,25.61-25.61,32.81-32.81c7.2-7.2,18.23-26.17,18.23-26.17l6.98,0.96
	l35.7-35.7c8.62,3.73,17.21,9.73,24.64,14.58c-6.42,6.89-9.46,10.53-9.68,12.15c-0.53,3.87-10.4,16.41-12,15.95
	c-1.6-0.46-5.2,0-5.2,0S101.38,235.08,98.58,237.88c-2.8,2.8-6.74,14.47-8.74,16.07c-2,1.6-8.21,0.87-17.22,9.88
	c-9,9-9.8,27.82-9.8,27.82s-0.19,109.16,0.21,115.56c0.4,6.4,0.4,18.41-0.8,23.21c-1.2,4.8,0.59,13.21,0.59,23.17
	c0,9.97,8.57,0,8.57,0l30.01-30.01c0,0,47.62-47.62,49.02-49.02c1.4-1.4,10.64-14.17,16.81-16.81c6.16-2.64,5.6-5.6,9.02-9.02
	c3.42-3.42,9.62-13.15,11.22-15.55c1.6-2.4,12.77-8.44,19.57-15.25c6.8-6.8,18.01-18.01,22.21-22.21
	c4.2-4.2,39.46-42.98,39.46-42.98s14.77-11.24,17.37-13.84c2.6-2.6,10.24-14.97,11.84-16.57c1.6-1.6,10.37-5.64,11.97-7.24
	c1.6-1.6,6.4-6.4,8.04-13.57c1.64-7.16,7.16-1.64,7.16-1.64s9.2-9.2,16.01-16.01c6.8-6.8,17.21-17.21,17.21-17.21s5-5,10.4-10.4
	c5.4-5.4,6.9-6.9,6.9-6.9c0.6-1.43,1.52-2.99,2.61-4.58c2.62,0.68,7.5,4,16.43,13.01c1.41,1.42-3.93,9.44-2.54,10.67l0,0
	c0,0-4.41,4.39-2.55,11.58c1.86,7.19-9.07,0-9.07,0L340.4,220c0,0-19.24,19.17-21.65,21.56c-2.4,2.39,1.18,9.99-2.02,13.2
	c-3.2,3.2-6-5.21-7.79,0c-1.79,5.21-9.84,6.38-9.84,6.38s4.03,2.42-25.26,25.16c-29.28,22.74-26.86,26.76-26.86,26.76
	s-3.21,3.19-6.28,14.78c-3.08,11.58-8.55,0-8.55,0l-50.52,50.33c0,0-24.86,24.76-28.87,28.76c-4.01,3.99-0.9,9.51-8.9,19.17
	c-8,9.66-10.34,0-10.34,0L97.3,462.17l3.95,6.75c-1.41-1.1-11.03,0.3-11.03,0.3L76.99,482.4c-5.61,5.59-1.96,10.05-1.96,10.05
	c-6.4,0.8-12.21,4.06-12.21,4.06l-1.01,48.76c0,0-1.19,5.6,1.01,12c2.2,6.4-1.01,6.4-1.01,6.4s1.01,108.04,1.01,115.25
	c0,7.2,21.17-15.05,21.17-15.05s20.41-20.41,22.81-22.81c2.4-2.4-0.56-10.16,1.85-9.2c2.4,0.96,7.36,0,7.36,0
	s50.42-50.42,55.62-55.62c5.2-5.2,11.45-18.96,26.81-26.81c15.36-7.85,41.22-41.22,41.22-41.22s40.42-40.42,42.82-42.82
	c2.4-2.4,7.6-7.6,8.02-14.56c0.42-6.96,13.19-6.65,13.19-6.65s26.41-26.41,34.01-34.01c7.6-7.6-0.16-15.36,2.25-13.76
	c2.4,1.6,10.16,1.36,10.16,1.36l68.03-68.03c0,0,29.61-29.61,36.41-36.42c6.8-6.8,1.44-12.16,4.65-12.96
	c3.2-0.8,11.98-3.67,11.98-3.67s30.99-30.99,38.6-38.6c7.6-7.6,5.18-32.97,5.18-32.97S516.56,161.92,514.96,157.12z"/>
</svg>
