<?xml version="1.0" encoding="utf-8"?>
<!-- Generator: Adobe Illustrator 27.0.0, SVG Export Plug-In . SVG Version: 6.00 Build 0)  -->
<svg version="1.1" id="Calque_1" xmlns="http://www.w3.org/2000/svg" xmlns:xlink="http://www.w3.org/1999/xlink" x="0px" y="0px"
	 viewBox="0 0 24.4 31" style="enable-background:new 0 0 24.4 31;" xml:space="preserve">
<style type="text/css">
	.st0{fill:#173170;}
	.st1{fill:#FFFFFF;}
</style>
<rect class="st0" width="24.4" height="31"/>
<path class="st1" d="M10.1,4.5c-0.8,0-1.4,0.6-1.4,1.4s0.6,1.4,1.4,1.4c0.8,0,1.4-0.6,1.4-1.4S10.9,4.5,10.1,4.5
	C10.1,4.5,10.1,4.5,10.1,4.5z"/>
<path class="st1" d="M14.7,5c-0.7,0-1.3-0.6-1.3-1.3c0-0.6,0.4-1.1,0.9-1.3h-0.5c-1.1,0-2.1,0.9-2.1,2c0,1.2,0.9,2.1,2.1,2.1
	S16,5.6,16,4.5c0-0.1,0-0.2-0.1-0.3C15.8,4.7,15.3,5,14.7,5z"/>
<path class="st1" d="M17.2,4.7c-0.7,0-1.2,0.5-1.2,1.2c0,0.7,0.5,1.2,1.2,1.2c0.7,0,1.2-0.5,1.2-1.2c0,0,0,0,0,0
	C18.4,5.2,17.9,4.7,17.2,4.7z M16.4,5.6L16.4,5.6C16.4,5.6,16.4,5.6,16.4,5.6z M16.4,5.8c0.1,0,0.1,0.1,0.1,0.2c0,0.1,0,0.2-0.1,0.2
	c0,0-0.1-0.1-0.1-0.2L16.4,5.8z M16.4,6.7L16.4,6.7c-0.1,0-0.2,0-0.2-0.1c0,0,0-0.1,0.1-0.1h0.2L16.4,6.7z M16.4,6.2l0.2-0.2
	c0.1,0,0.2,0.1,0.2,0.2s-0.1,0.2-0.2,0.2C16.5,6.4,16.4,6.3,16.4,6.2z M16.9,6.9c-0.1,0-0.2-0.1-0.2-0.2v0c0-0.2,0.1-0.3,0.2-0.3
	S17,6.6,17,6.7C17,6.8,17,6.9,16.9,6.9C16.9,6.9,16.9,6.9,16.9,6.9z"/>
<circle class="st1" cx="10" cy="24.8" r="1.3"/>
<path class="st1" d="M17.1,23.7c-0.6,0-1.1,0.5-1.1,1.1c0,0.6,0.4,1.1,1,1.2c0,0,0.1,0,0.1,0c0.6,0,1.1-0.5,1.1-1.1c0,0,0-0.1,0-0.1
	C18.2,24.2,17.7,23.7,17.1,23.7z"/>
<path class="st1" d="M16,26.9l-1.1-0.4l0,0v-0.2L16,26l-1.2,0.2l0,0c0.3-0.2,0.6-0.4,0.9-0.7l-1,0.2c0,0-0.1,0-0.1-0.1l0,0l0.8-0.8
	c-0.3,0.2-0.7,0.5-0.9,0.8c0-0.1,0-0.1-0.1-0.1c0.2-0.3,0.4-0.7,0.5-1.1c-0.2,0.3-0.4,0.7-0.6,1h-0.2c0.1-0.4,0.2-0.7,0.3-1.1
	c-0.2,0.4-0.3,0.7-0.4,1.1h-0.1c0-0.3-0.1-0.7-0.1-1.1c-0.1,0.4-0.1,0.7-0.1,1.1h-0.2c-0.1-0.4-0.2-0.7-0.3-1.1
	c0.1,0.4,0.1,0.8,0.2,1.1c0,0-0.1,0-0.1,0.1l0,0l-0.7-1l0.5,1.1c0,0-0.1,0-0.1,0.1l0,0l-0.8-0.8c0.2,0.3,0.5,0.6,0.8,0.8h-0.1
	l-1.1-0.5l1,0.7c0,0-0.1,0-0.1,0.1l0,0l-1.1-0.2l1.1,0.3c0,0.1-0.1,0.1-0.1,0.2h0.1l-1.1,0.4l1.1-0.3c0,0.1,0,0.1,0.1,0.2l-1,0.6
	l1.1-0.5c0,0.1,0,0.1,0.1,0.2c-0.3,0.2-0.6,0.5-0.8,0.8l0.8-0.8h0.1c-0.1,0.4-0.3,0.7-0.5,1c0.3-0.3,0.5-0.6,0.7-0.9h0.1
	c0,0.4-0.1,0.8-0.2,1.2c0.2-0.4,0.3-0.8,0.3-1.1h0.2c0,0.4,0,0.8,0.1,1.2c0-0.5,0.1-0.8,0.1-1.2H14l0.4,1.1
	c-0.1-0.5-0.2-0.8-0.3-1.2h0.2l0.6,0.9c-0.1-0.4-0.3-0.7-0.5-1h0.2l0.8,0.8l-0.8-0.9c0,0,0.1,0,0.1-0.1l0,0l1,0.5l-0.9-0.6v-0.2
	L16,26.9z"/>
<circle class="st1" cx="9.7" cy="12.2" r="0.8"/>
<path class="st1" d="M18.1,21.3l-2.7-1.5v-9.7c0-0.3,0-0.7-0.1-1l-0.3-0.3l-0.5-0.3h-0.8l-0.8,0.2c-0.2,0-0.4,0.2-0.5,0.3
	c-0.1,0.2-0.2,0.3-0.2,0.5v8.2c-1.7-1.1-3.3-2.2-4.9-3.5v-4.2c0-0.3,0-0.7-0.1-1C7,8.7,6.5,8.4,5.7,8.4S4.4,8.6,4.2,8.9
	C4.1,9.1,4.1,9.3,4.1,9.5C4.1,9.6,4,9.8,4,10.1v1.4L1.9,9.7c0.7,0.9,1.4,1.7,2.1,2.5v8.1c0,0.3,0.1,0.7,0.2,1
	C4.3,21.8,4.7,22,5.7,22s1.3-0.2,1.4-0.5s0.1-0.3,0.2-0.5v-5.8c1.6,1.2,3.2,2.3,4.9,3.4v1.8c0,0.3,0,0.7,0.1,1
	c0.2,0.4,0.7,0.7,1.5,0.7s1.3-0.2,1.4-0.5c0.1-0.2,0.2-0.3,0.2-0.5v-0.6c3.6,1.9,6.3,3,6.8,3S19.7,22.2,18.1,21.3z"/>
<path class="st1" d="M19,17.5h3.3l0.2,0.3c0.1,0.1,0.1,0.3,0.1,0.4c0,0.2,0,0.4-0.1,0.5c0,0.1-0.1,0.2-0.2,0.2h0H18
	c-0.4,0-0.8-0.1-0.8-0.3V12c0-0.1,0-0.2,0.1-0.3c0.1-0.2,0.3-0.3,0.8-0.3s0.8,0.1,0.8,0.3C19,11.8,19,17.5,19,17.5z"/>
</svg>
