<?xml version="1.0" encoding="utf-8"?>
<!-- Generator: Adobe Illustrator 26.0.0, SVG Export Plug-In . SVG Version: 6.00 Build 0)  -->
<svg version="1.1" id="Calque_1" xmlns="http://www.w3.org/2000/svg" xmlns:xlink="http://www.w3.org/1999/xlink" x="0px" y="0px"
	 viewBox="0 0 380 191" style="enable-background:new 0 0 380 191;" xml:space="preserve">
<style type="text/css">
	.st0{fill:#FFFFFF;}
</style>
<path class="st0" d="M98.1,68.6c5.1-4.6,11.8-7.6,18.6-8.6c6.9-0.7,13.8-0.6,20.6-1.7c3.4-0.5,6.8-1.1,9.9-2.6c1-0.5,2-1.2,2.1-2.5
	c0,1.2-1.1,2.1-2,2.7c-3,1.8-6.5,2.4-9.9,3.1c-6.8,1.3-13.8,1.3-20.6,1.9C110.1,61.8,103.6,64.4,98.1,68.6L98.1,68.6z"/>
<path class="st0" d="M282.4,68.6c-5.4-4.1-12-6.8-18.8-7.7c-6.8-0.6-13.8-0.5-20.6-1.9c-3.4-0.7-6.9-1.3-9.9-3.1c-1-0.6-2-1.5-2-2.7
	c0.1,1.2,1.2,1.9,2.1,2.5c3.1,1.5,6.5,2,9.9,2.6c6.8,1.1,13.7,1,20.6,1.7C270.6,60.9,277.3,64,282.4,68.6L282.4,68.6z"/>
<g>
	<circle class="st0" cx="54.2" cy="92.8" r="4.4"/>
</g>
<g>
	<circle class="st0" cx="332" cy="92.8" r="4.4"/>
</g>
<path class="st0" d="M170.9,109.9c0.6,1.4,0.9,2.5,0.9,3.1c0,1.5-1.2,2.8-3.7,3.8c-1.3,0.6-2.3,0.8-3.1,0.8s-1.4-0.2-1.9-0.6
	s-0.9-0.8-1.1-1.2c-0.4-0.8-2-4.4-4.7-10.9l-1.9,0.1h-7.6v6.8c0,0.9,0,1.6-0.1,2.1c-0.1,0.5-0.2,1-0.6,1.6c-0.6,1.1-2.1,1.6-4.7,1.6
	c-2.8,0-4.4-0.7-4.9-2.2c-0.2-0.7-0.4-1.7-0.4-3.1V78.6c0-0.9,0-1.6,0.1-2.1c0.1-0.5,0.2-1,0.6-1.6c0.6-1.1,2.1-1.6,4.7-1.6h13
	c3.5,0,6.9,1.3,10.3,3.8c1.6,1.2,2.9,2.9,4,5c1,2.1,1.6,4.5,1.6,7.1c0,4.5-1.5,8.2-4.5,11.2C167.7,102.6,169.1,105.7,170.9,109.9z
	 M147.9,94.6h7.7c1.2,0,2.3-0.4,3.5-1.3s1.7-2.2,1.7-4c0-1.8-0.6-3.1-1.7-4s-2.4-1.4-3.6-1.4h-7.6V94.6z"/>
<path class="st0" d="M202.6,75.2c0.4-0.7,1-1.2,1.7-1.4c0.8-0.2,1.7-0.4,2.9-0.4s2.1,0.1,2.8,0.3c0.7,0.2,1.2,0.4,1.6,0.7
	s0.6,0.7,0.8,1.3c0.2,0.6,0.4,1.7,0.4,3.1v33.3c0,1,0,1.7-0.1,2.1s-0.2,1-0.6,1.6c-0.6,1.1-2.1,1.6-4.7,1.6c-1.6,0-2.6-0.1-3.2-0.4
	c-0.6-0.2-1.1-0.6-1.5-1.1c-9-12-14.9-19.8-17.8-23.5v19.7c0,1,0,1.7-0.1,2.1s-0.2,1-0.6,1.6c-0.6,1.1-2.1,1.6-4.7,1.6
	c-2.5,0-4-0.5-4.6-1.6c-0.3-0.6-0.5-1.1-0.6-1.6c-0.1-0.5-0.1-1.2-0.1-2.1V78.5c0-1.5,0.2-2.6,0.6-3.3c0.4-0.7,1-1.2,1.7-1.4
	c0.8-0.2,1.7-0.4,2.9-0.4s2.1,0.1,2.9,0.3s1.2,0.5,1.5,0.8c0.2,0.1,0.6,0.6,1.4,1.6c8.4,11.5,14.1,19.1,16.9,22.7V78.5
	C202,77,202.2,75.9,202.6,75.2z"/>
<path class="st0" d="M278,95.7c6.1,5.9,10.5,10.3,13,13.3c1.3,1.5,2,2.7,2,3.8s-0.8,2.2-2.4,3.6s-2.9,2.1-3.9,2.1s-2.2-0.8-3.7-2.5
	l-13.2-15.1v11.7c0,1,0,1.7-0.1,2.1s-0.2,1-0.6,1.6c-0.6,1.1-2.1,1.6-4.7,1.6c-2.8,0-4.4-0.8-4.9-2.3c-0.2-0.6-0.4-1.7-0.4-3.1V79.1
	c0-0.9,0-1.6,0.1-2.1c0.1-0.5,0.2-1,0.6-1.6c0.6-1.1,2.1-1.6,4.7-1.6c2.8,0,4.5,0.7,5,2.2c0.2,0.7,0.3,1.7,0.3,3.1v11.5
	c5.4-6.1,9.8-11.1,13.2-15.1c1.4-1.6,2.6-2.5,3.7-2.5s2.4,0.7,4,2.1s2.4,2.6,2.4,3.6s-0.6,2.2-1.8,3.6c-2.3,2.7-5.9,6.4-10.8,11
	L278,95.7z"/>
<g>
	<path class="st0" d="M111.9,136.7h5.7c0.5,0,0.8,0,1,0.2c0.2,0.1,0.4,0.3,0.4,0.5c0.1,0.2,0.1,0.5,0.1,0.9s0,0.7-0.1,0.9
		s-0.2,0.4-0.4,0.5c-0.3,0.1-0.6,0.2-1.1,0.2H110c-1,0-1.6-0.3-1.7-0.8c-0.1-0.2-0.1-0.6-0.1-1.1v-11.7c0-0.3,0-0.6,0-0.7
		s0.1-0.4,0.2-0.6c0.2-0.4,0.7-0.6,1.6-0.6c1,0,1.6,0.3,1.7,0.8c0.1,0.2,0.1,0.6,0.1,1.1L111.9,136.7L111.9,136.7z"/>
	<path class="st0" d="M136.8,136h6.5c0.3,0,0.6,0,0.7,0s0.4,0.1,0.6,0.2c0.4,0.2,0.6,0.7,0.6,1.6c0,1-0.3,1.5-0.8,1.7
		c-0.2,0.1-0.6,0.1-1.1,0.1H135c-1,0-1.6-0.3-1.7-0.8c-0.1-0.2-0.1-0.6-0.1-1.1v-11.7c0-0.7,0.1-1.2,0.4-1.5
		c0.3-0.3,0.8-0.4,1.5-0.4h8.3c0.3,0,0.6,0,0.7,0s0.4,0.1,0.6,0.2c0.4,0.2,0.6,0.7,0.6,1.6c0,1-0.3,1.5-0.8,1.7
		c-0.2,0.1-0.6,0.1-1.1,0.1h-6.4v2.1h4.2c0.3,0,0.6,0,0.7,0s0.4,0.1,0.6,0.2c0.4,0.2,0.6,0.7,0.6,1.6c0,1-0.3,1.5-0.8,1.7
		c-0.2,0.1-0.6,0.1-1.1,0.1h-4.1L136.8,136L136.8,136z"/>
	<path class="st0" d="M167.1,130.5h3.7c0.8,0,1.2,0.2,1.4,0.6c0.1,0.3,0.2,0.7,0.2,1.2v4.6c0,0.5-0.2,0.9-0.6,1.3
		c-1.2,1.2-2.9,1.8-5.3,1.8c-2.1,0-3.9-0.8-5.4-2.4c-1.5-1.6-2.3-3.5-2.3-5.7c0-2.2,0.8-4.1,2.4-5.6s3.4-2.2,5.5-2.2
		c1.6,0,3.2,0.5,4.7,1.6c0.4,0.3,0.6,0.6,0.6,0.9s-0.2,0.7-0.5,1.2c-0.5,0.7-1,1.1-1.5,1.1c-0.3,0-0.7-0.2-1.3-0.6
		c-0.6-0.4-1.3-0.6-2.1-0.6c-1.1,0-2,0.4-2.8,1.1c-0.8,0.8-1.2,1.7-1.2,2.9s0.4,2.2,1.3,3.1s1.8,1.3,2.9,1.3c0.8,0,1.5-0.1,2.1-0.4
		v-2.3h-1.7c-0.4,0-0.7-0.1-0.9-0.2c-0.2-0.1-0.3-0.3-0.4-0.5c-0.1-0.2-0.1-0.5-0.1-0.9s0-0.7,0.1-0.9s0.2-0.4,0.4-0.5
		C166.4,130.5,166.7,130.5,167.1,130.5z"/>
	<path class="st0" d="M190.4,136h6.5c0.3,0,0.6,0,0.7,0s0.4,0.1,0.6,0.2c0.4,0.2,0.6,0.7,0.6,1.6c0,1-0.3,1.5-0.8,1.7
		c-0.2,0.1-0.6,0.1-1.1,0.1h-8.3c-1,0-1.5-0.3-1.7-0.8c-0.1-0.2-0.1-0.6-0.1-1.1v-11.7c0-0.7,0.1-1.2,0.4-1.5
		c0.3-0.3,0.8-0.4,1.5-0.4h8.3c0.3,0,0.6,0,0.7,0s0.4,0.1,0.6,0.2c0.4,0.2,0.6,0.7,0.6,1.6c0,1-0.3,1.5-0.8,1.7
		c-0.2,0.1-0.6,0.1-1.1,0.1h-6.5v2.1h4.2c0.3,0,0.6,0,0.7,0s0.4,0.1,0.6,0.2c0.4,0.2,0.6,0.7,0.6,1.6c0,1-0.3,1.5-0.8,1.7
		c-0.2,0.1-0.6,0.1-1.1,0.1h-4.1L190.4,136L190.4,136z"/>
	<path class="st0" d="M222.6,125c0.1-0.2,0.3-0.4,0.6-0.5s0.6-0.1,1-0.1s0.7,0,1,0.1c0.2,0.1,0.4,0.1,0.5,0.2s0.2,0.2,0.3,0.4
		c0.1,0.2,0.1,0.6,0.1,1.1v11.6c0,0.3,0,0.6,0,0.7s-0.1,0.3-0.2,0.5c-0.2,0.4-0.7,0.6-1.6,0.6c-0.5,0-0.9,0-1.1-0.1
		s-0.4-0.2-0.5-0.4c-3.1-4.2-5.2-6.9-6.2-8.2v6.9c0,0.3,0,0.6,0,0.7s-0.1,0.3-0.2,0.5c-0.2,0.4-0.7,0.6-1.6,0.6
		c-0.9,0-1.4-0.2-1.6-0.6c-0.1-0.2-0.2-0.4-0.2-0.6s0-0.4,0-0.7v-11.7c0-0.5,0.1-0.9,0.2-1.2c0.1-0.2,0.3-0.4,0.6-0.5
		c0.3-0.1,0.6-0.1,1-0.1s0.8,0,1,0.1c0.2,0.1,0.4,0.2,0.5,0.3c0.1,0,0.2,0.2,0.5,0.5c3,4,4.9,6.7,5.9,8v-7.1
		C222.4,125.6,222.5,125.3,222.6,125z"/>
	<path class="st0" d="M242.3,124.4l3.9,0c2,0,3.8,0.7,5.4,2.2s2.3,3.3,2.3,5.4s-0.8,4-2.3,5.5c-1.5,1.5-3.3,2.3-5.5,2.3h-3.8
		c-0.9,0-1.4-0.2-1.6-0.5c-0.2-0.3-0.2-0.7-0.2-1.3v-11.7c0-0.3,0-0.6,0-0.7c0-0.1,0.1-0.3,0.2-0.5
		C240.8,124.5,241.4,124.4,242.3,124.4z M248.9,134.9c0.8-0.8,1.2-1.7,1.2-2.8c0-1.1-0.4-2.1-1.2-2.9c-0.8-0.8-1.7-1.1-2.8-1.1h-2
		v7.9h2C247.2,136,248.1,135.7,248.9,134.9z"/>
	<path class="st0" d="M267.2,137.6c-0.4-0.5-0.5-0.9-0.5-1.2s0.3-0.8,0.9-1.4c0.4-0.3,0.7-0.5,1.1-0.5c0.4,0,0.9,0.4,1.6,1
		c0.2,0.2,0.5,0.5,0.8,0.7c0.4,0.2,0.7,0.3,1,0.3c1.3,0,2-0.5,2-1.6c0-0.3-0.2-0.6-0.5-0.8s-0.8-0.4-1.3-0.5s-1.1-0.2-1.7-0.5
		c-0.6-0.2-1.2-0.5-1.7-0.8c-0.5-0.3-1-0.8-1.3-1.4c-0.4-0.6-0.5-1.4-0.5-2.3c0-1.2,0.5-2.3,1.4-3.2s2.2-1.4,3.8-1.4
		c0.8,0,1.6,0.1,2.3,0.3s1.2,0.4,1.4,0.7l0.5,0.4c0.4,0.4,0.6,0.8,0.6,1s-0.2,0.7-0.5,1.2c-0.5,0.7-1,1-1.5,1
		c-0.3,0-0.7-0.1-1.1-0.4c0,0-0.1-0.1-0.2-0.2s-0.2-0.2-0.3-0.3c-0.3-0.2-0.7-0.3-1.1-0.3c-0.5,0-0.8,0.1-1.1,0.3
		c-0.3,0.2-0.5,0.5-0.5,0.9s0.2,0.7,0.5,0.9c0.4,0.2,0.8,0.4,1.3,0.5s1.1,0.2,1.7,0.4c0.6,0.2,1.2,0.4,1.7,0.6s1,0.7,1.3,1.3
		s0.5,1.4,0.5,2.3s-0.2,1.7-0.5,2.4s-0.8,1.2-1.4,1.6c-1.1,0.7-2.4,1.1-3.6,1.1c-0.7,0-1.3-0.1-1.9-0.2s-1.1-0.4-1.4-0.6
		c-0.7-0.5-1.3-0.9-1.5-1.3L267.2,137.6z"/>
</g>
<g>
	<path class="st0" d="M171.5,48.2c3.5,0,6.4,2.9,6.4,6.4s-2.9,6.4-6.4,6.4s-6.4-2.9-6.4-6.4S168,48.2,171.5,48.2 M171.5,46.2
		c-4.6,0-8.4,3.8-8.4,8.4s3.8,8.4,8.4,8.4s8.4-3.8,8.4-8.4S176.1,46.2,171.5,46.2L171.5,46.2z"/>
</g>
<g>
	<circle class="st0" cx="171.5" cy="159.5" r="7.2"/>
</g>
<g>
	<path class="st0" d="M212.1,157.1c1.3,0,2.4,1.1,2.4,2.4s-1.1,2.4-2.4,2.4s-2.4-1.1-2.4-2.4S210.8,157.1,212.1,157.1 M212.1,153.1
		c-3.5,0-6.4,2.9-6.4,6.4s2.9,6.4,6.4,6.4c3.5,0,6.4-2.9,6.4-6.4S215.6,153.1,212.1,153.1L212.1,153.1z"/>
</g>
<g>
	<path class="st0" d="M198.2,49.1c-4.1,0-7.5-3.4-7.5-7.5c0-3.3,2.2-6.2,5.2-7.1c-0.9-0.2-1.9-0.4-2.9-0.4
		c-6.7,0-12.1,5.4-12.1,12.1c0,6.7,5.4,12.1,12.1,12.1s12.1-5.4,12.1-12.1c0-0.5,0-0.9-0.1-1.3C203.8,47.4,201.2,49.1,198.2,49.1z"
		/>
</g>
<path class="st0" d="M205.6,171.2c-2.6-1-4.7-1.7-6.3-2.2c0-0.2,0.1-0.4,0.1-0.7c1.7-0.1,3.9-0.2,6.6-0.5c-2.8-0.3-4.9-0.4-6.6-0.5
	c0-0.2-0.1-0.4-0.1-0.7c1.6-0.5,3.7-1.2,6.3-2.2c-2.8,0.4-4.9,0.9-6.5,1.2c-0.1-0.2-0.2-0.4-0.3-0.6c1.5-0.9,3.2-2.1,5.5-3.7
	c-2.6,1.1-4.5,2.1-6,2.9c-0.1-0.2-0.2-0.4-0.4-0.6c1.2-1.3,2.6-2.9,4.3-5c-2.2,1.8-3.8,3.2-5,4.3c-0.2-0.1-0.4-0.2-0.6-0.4
	c0.8-1.5,1.8-3.5,2.9-6c-1.6,2.2-2.8,4-3.7,5.5c-0.2-0.1-0.4-0.2-0.6-0.2c0.4-1.7,0.8-3.8,1.2-6.5c-1,2.6-1.7,4.7-2.2,6.3
	c-0.2,0-0.4-0.1-0.7-0.1c-0.1-1.7-0.2-3.9-0.5-6.6c-0.3,2.8-0.4,4.9-0.5,6.6c-0.2,0-0.4,0.1-0.7,0.1c-0.5-1.6-1.2-3.7-2.2-6.3
	c0.4,2.8,0.9,4.9,1.2,6.5c-0.2,0.1-0.4,0.2-0.6,0.3c-0.9-1.5-2.1-3.2-3.7-5.5c1.1,2.6,2.1,4.5,2.9,6c-0.2,0.1-0.4,0.2-0.6,0.4
	c-1.3-1.2-2.9-2.6-5-4.3c1.8,2.2,3.2,3.8,4.3,5c-0.1,0.2-0.2,0.4-0.4,0.6c-1.5-0.8-3.5-1.8-6-2.9c2.3,1.6,4,2.8,5.5,3.7
	c-0.1,0.2-0.2,0.4-0.2,0.6c-1.7-0.4-3.8-0.8-6.5-1.2c2.6,1,4.7,1.7,6.3,2.2c0,0.2-0.1,0.4-0.1,0.7c-1.7,0.1-3.9,0.2-6.6,0.5
	c2.8,0.3,4.9,0.4,6.6,0.5c0,0.2,0.1,0.4,0.1,0.7c-1.6,0.5-3.7,1.2-6.3,2.2c2.8-0.4,4.9-0.9,6.5-1.2c0.1,0.2,0.2,0.4,0.3,0.6
	c-1.5,0.9-3.2,2.1-5.5,3.7c2.6-1.1,4.5-2.1,6-2.9c0.1,0.2,0.2,0.4,0.4,0.6c-1.2,1.3-2.6,2.9-4.3,5c2.2-1.8,3.8-3.2,5-4.3
	c0.2,0.1,0.4,0.2,0.6,0.4c-0.8,1.5-1.8,3.5-2.9,6c1.6-2.3,2.8-4,3.7-5.5c0.2,0.1,0.4,0.2,0.6,0.2c-0.4,1.7-0.8,3.8-1.2,6.5
	c1-2.6,1.7-4.7,2.2-6.3c0.2,0,0.4,0.1,0.7,0.1c0.1,1.7,0.2,3.9,0.5,6.6c0.3-2.8,0.4-4.9,0.5-6.6c0.2,0,0.4-0.1,0.7-0.1
	c0.5,1.6,1.2,3.7,2.2,6.3c-0.4-2.8-0.9-4.9-1.2-6.5c0.2-0.1,0.4-0.2,0.6-0.3c0.9,1.5,2.1,3.2,3.7,5.5c-1.1-2.6-2.1-4.5-2.9-6
	c0.2-0.1,0.4-0.2,0.6-0.4c1.3,1.2,2.9,2.6,5,4.3c-1.8-2.2-3.2-3.8-4.3-5c0.1-0.2,0.2-0.4,0.4-0.6c1.5,0.8,3.5,1.8,6,2.9
	c-2.2-1.6-4-2.8-5.5-3.7c0.1-0.2,0.2-0.4,0.2-0.6C200.8,170.4,202.9,170.8,205.6,171.2z"/>
<g>
	<path class="st0" d="M212.1,47.8c-3.7,0-6.8,3-6.8,6.8s3,6.8,6.8,6.8s6.8-3,6.8-6.8C218.9,50.8,215.8,47.8,212.1,47.8z M207.6,52.4
		c0.2,0,0.3,0.1,0.3,0.3s-0.1,0.3-0.3,0.3s-0.3-0.1-0.3-0.3C207.2,52.5,207.4,52.4,207.6,52.4z M207.2,54c0.2,0,0.4,0.4,0.4,0.8
		s-0.2,0.8-0.4,0.8s-0.4-0.4-0.4-0.8S207,54,207.2,54z M207.7,58.4c-0.2,0.1-0.6-0.1-0.7-0.4s0-0.7,0.2-0.8c0.2-0.1,0.6,0.1,0.7,0.4
		C208.1,58,208,58.3,207.7,58.4z M207.9,56.4c0-0.6,0.4-1,0.8-1s0.8,0.5,0.8,1s-0.4,1-0.8,1C208.2,57.4,207.9,56.9,207.9,56.4z
		 M210.1,59.9c-0.6,0-1-0.5-1-1c0-0.6,0.5-1,1-1c0.6,0,1,0.5,1,1S210.7,59.9,210.1,59.9z"/>
</g>
<path class="st0" d="M134.8,110l-16.2-33.5c-1-2.1-2.6-3.1-4.8-3.1c-1,0-1.9,0.3-2.9,0.8c-0.9,0.6-1.6,1.3-2,2.2L92.7,110
	c-0.7,1.4-1,2.4-1,3.1c0,1.4,1.2,2.7,3.5,3.8c1.4,0.7,2.4,1,3.2,1c0.8,0,1.4-0.2,1.9-0.6s0.9-0.8,1.1-1.1s0.5-0.9,0.9-1.7l3.1-6.5
	H122l3.1,6.5c0.4,0.8,0.7,1.4,0.9,1.8c0.2,0.4,0.6,0.8,1.1,1.1c0.5,0.4,1.1,0.5,1.9,0.5s1.9-0.3,3.2-1c2.3-1.2,3.5-2.5,3.5-3.9
	C135.8,112.3,135.4,111.3,134.8,110z M113.7,100.6c-3.6,0-6.6-2.9-6.6-6.5s2.9-6.5,6.6-6.5c0.6,0,1.1,0.1,1.6,0.2
	c-1.6,0.5-2.8,2.1-2.8,3.9c0,2.2,1.8,4.1,4.1,4.1c1.6,0,3-1,3.7-2.3c0,0.2,0,0.5,0,0.7C120.3,97.7,117.3,100.6,113.7,100.6z"/>
<path class="st0" d="M256.9,110l-16.2-33.5c-1-2.1-2.6-3.1-4.8-3.1c-1,0-2,0.3-2.9,0.8s-1.6,1.3-2,2.2L214.8,110
	c-0.7,1.4-1,2.4-1,3.1c0,1.4,1.2,2.7,3.5,3.8c1.4,0.7,2.4,1,3.2,1s1.4-0.2,1.9-0.6s0.9-0.8,1.1-1.1s0.5-0.9,0.9-1.7l3.1-6.5h16.6
	l3.1,6.5c0.4,0.8,0.7,1.4,0.9,1.8s0.6,0.8,1.1,1.1c0.5,0.4,1.1,0.5,1.9,0.5s1.9-0.3,3.2-1c2.3-1.2,3.5-2.5,3.5-3.9
	C257.9,112.3,257.6,111.3,256.9,110z M246.1,96.8c-2.2-0.4-3.9-0.7-5.3-1c-0.1,0.2-0.1,0.4-0.2,0.5c1.2,0.7,2.6,1.7,4.4,3
	c-2.1-0.9-3.6-1.7-4.9-2.4c-0.1,0.1-0.2,0.3-0.3,0.5c1,1,2.1,2.3,3.5,4.1c-1.8-1.4-3.1-2.6-4.1-3.5c-0.1,0.1-0.3,0.2-0.5,0.3
	c0.6,1.2,1.4,2.8,2.4,4.9c-1.3-1.8-2.3-3.3-3-4.4c-0.2,0.1-0.3,0.1-0.5,0.2c0.3,1.4,0.6,3,1,5.3c-0.8-2.1-1.4-3.8-1.8-5.1
	c-0.2,0-0.4,0.1-0.5,0.1c-0.1,1.4-0.2,3.1-0.4,5.4c-0.2-2.3-0.4-4-0.4-5.4c-0.2,0-0.4-0.1-0.5-0.1c-0.4,1.3-1,3-1.8,5.1
	c0.4-2.2,0.7-3.9,1-5.3c-0.2-0.1-0.4-0.1-0.5-0.2c-0.7,1.2-1.7,2.6-3,4.4c0.9-2.1,1.7-3.6,2.4-4.9c-0.1-0.1-0.3-0.2-0.5-0.3
	c-1,1-2.3,2.1-4.1,3.5c1.4-1.8,2.6-3.1,3.5-4.1c-0.1-0.1-0.2-0.3-0.3-0.5c-1.2,0.6-2.8,1.4-4.9,2.4c1.8-1.3,3.3-2.3,4.4-3
	c-0.1-0.2-0.1-0.3-0.2-0.5c-1.4,0.3-3,0.6-5.3,1c2.1-0.8,3.8-1.4,5.1-1.8c0-0.2-0.1-0.4-0.1-0.5c-1.4-0.1-3.1-0.2-5.4-0.4
	c2.3-0.2,4-0.4,5.4-0.4c0-0.2,0.1-0.4,0.1-0.5c-1.3-0.4-3-1-5.1-1.8c2.2,0.4,3.9,0.7,5.3,1c0.1-0.2,0.1-0.4,0.2-0.5
	c-1.2-0.7-2.6-1.7-4.4-3c2.1,0.9,3.6,1.7,4.9,2.4c0.1-0.1,0.2-0.3,0.3-0.5c-1-1-2.1-2.3-3.5-4.1c1.8,1.4,3.1,2.6,4.1,3.5
	c0.1-0.1,0.3-0.2,0.5-0.3c-0.6-1.2-1.4-2.8-2.4-4.9c1.3,1.8,2.3,3.3,3,4.4c0.2-0.1,0.3-0.1,0.5-0.2c-0.3-1.4-0.6-3-1-5.3
	c0.8,2.1,1.4,3.8,1.8,5.1c0.2,0,0.4-0.1,0.5-0.1c0.1-1.4,0.2-3.1,0.4-5.4c0.2,2.3,0.4,4,0.4,5.4c0.2,0,0.4,0.1,0.5,0.1
	c0.4-1.3,1-3,1.8-5.1c-0.4,2.2-0.7,3.9-1,5.3c0.2,0.1,0.4,0.1,0.5,0.2c0.7-1.2,1.7-2.6,3-4.4c-0.9,2.1-1.7,3.6-2.4,4.9
	c0.1,0.1,0.3,0.2,0.5,0.3c1-1,2.3-2.1,4.1-3.5c-1.4,1.8-2.6,3.1-3.5,4.1c0.1,0.1,0.2,0.3,0.3,0.5c1.2-0.6,2.8-1.4,4.9-2.4
	c-1.8,1.3-3.3,2.3-4.4,3c0.1,0.2,0.1,0.3,0.2,0.5c1.4-0.3,3-0.6,5.3-1c-2.1,0.8-3.8,1.4-5.1,1.8c0,0.2,0.1,0.4,0.1,0.5
	c1.4,0.1,3.1,0.2,5.4,0.4c-2.3,0.2-4,0.4-5.4,0.4c0,0.2-0.1,0.4-0.1,0.5C242.3,95.4,244,96,246.1,96.8z"/>
<path class="st0" d="M102,144.7c-5.3-2.9-10.4-5.9-15.3-8.8V81.1c0-2.5-0.2-4.3-0.5-5.5c-0.4-0.9-0.8-1.6-1.5-2.1
	c-0.6-0.5-1.5-0.9-2.7-1.3s-2.8-0.5-4.8-0.5c-2,0-3.7,0.2-5.1,0.6s-2.3,1.2-2.8,2.2s-0.9,2-1,2.8c-0.1,0.8-0.2,2-0.2,3.6v35.3v7.9
	c-10.6-7-19.9-13.7-27.9-19.8V81.1c0-2.5-0.2-4.3-0.5-5.5c-0.9-2.6-3.8-3.9-8.7-3.9c-4.5,0-7.2,1-8.2,2.8c-0.6,1-0.9,2-1,2.8
	s-0.2,2-0.2,3.6v8.5c-8-6.8-12.3-11-12.3-11C12.8,84,17,89.2,21.6,94.1v45.3c0,2.5,0.2,4.3,0.6,5.5c0.8,2.6,3.7,3.9,8.6,3.9
	c4.5,0,7.2-1,8.2-2.8c0.6-1,0.9-2,1-2.8s0.2-2,0.2-3.6v-7.7v-15.5V111c8.8,6.9,18.3,13.1,27.9,18.7v2.1v7.6c0,2.5,0.2,4.3,0.6,5.5
	c0.8,2.6,3.7,3.9,8.6,3.9c4.5,0,7.2-1,8.2-2.8c0.6-1,0.9-2,1-2.8c0.1-0.8,0.1-1.9,0.2-3.4c31.3,15.6,59.6,23.9,62.9,23.9
	C153.4,163.6,111.1,149.8,102,144.7z"/>
<path class="st0" d="M337.2,113.7c13.8-10.3,26-22,34.5-35.2c0,0-14,13.6-38.4,31.4l-13.7-13.6V82.1c0-2.4-0.2-4.1-0.5-5.3
	c-0.9-2.5-3.7-3.8-8.5-3.8c-4.4,0-7,0.9-8,2.8c-0.5,1-0.9,1.9-1,2.7s-0.1,2-0.1,3.5v49.5c-7.1,4.4-14.6,8.9-22.5,13.3
	c-9.1,5-51.4,18.9-47.6,18.9c3.6,0,36-9.6,70.1-27.6v2.7c0,2.4,0.2,4.1,0.6,5.2c0.8,2.6,3.6,3.9,8.4,3.9c4.4,0,7-0.9,8-2.8
	c0.5-1,0.9-1.9,1-2.6s0.1-1.9,0.1-3.6v-13.1c1.3-0.8,2.6-1.6,3.8-2.4l18.6,21.2c2.5,2.9,4.5,4.3,6.3,4.3s4-1.2,6.7-3.5
	c2.7-2.3,4.1-4.4,4.1-6.1c0-1.7-1.1-3.9-3.4-6.4C351.8,128.3,345.7,122,337.2,113.7z"/>
</svg>
