<svg id="Calque_1" data-name="Calque 1" xmlns="http://www.w3.org/2000/svg" viewBox="0 0 100 100"><defs><style>.cls-1{fill:#fbc74e;}</style></defs><circle class="cls-1" cx="49.2" cy="43.2" r="1.7"/><path class="cls-1" d="M43.5,36.5c-.3-1-1.5-1.5-3.4-1.5s-2.8.3-3.2,1.1a4.9,4.9,0,0,0-.4,1.1V42c-3.2-2.7-4.9-4.3-4.9-4.3a62.3,62.3,0,0,0,4.9,5.5V47H33a.8.8,0,0,0-.8.8v.9a.8.8,0,0,0,.8.8h3.5v4.1H33a.7.7,0,0,0-.8.7v.9a.7.7,0,0,0,.8.8h3.5v5.4a10.6,10.6,0,0,0,.2,2.1c.3,1,1.5,1.5,3.4,1.5s2.8-.3,3.2-1.1a4.9,4.9,0,0,0,.4-1.1V38.6A6.2,6.2,0,0,0,43.5,36.5Z"/><path class="cls-1" d="M64.8,62.1a18.7,18.7,0,0,1-2.9-2V56h3.6a.7.7,0,0,0,.7-.7v-1a.7.7,0,0,0-.7-.7H61.9V49.5h3.6a.8.8,0,0,0,.7-.8v-.9a.8.8,0,0,0-.7-.8H61.9V38.6a10.6,10.6,0,0,0-.2-2.1,1.2,1.2,0,0,0-.6-.8,2.3,2.3,0,0,0-1.1-.5,4.4,4.4,0,0,0-1.8-.2,5.9,5.9,0,0,0-2,.2,2,2,0,0,0-1.1.9,2.5,2.5,0,0,0-.4,1.1,5.3,5.3,0,0,0-.1,1.4V61.4a5.8,5.8,0,0,0,.3,2.1q.5,1.5,3.3,1.5c1.8,0,2.9-.3,3.2-1.1a1.7,1.7,0,0,0,.4-1.1,3.8,3.8,0,0,0,.1-1.2c4.1,2.2,4.6,2.6,5.7,2.6S68.4,64,64.8,62.1Z"/><path class="cls-1" d="M50,28.6l19.5,8.1V63.3L50,71.4,30.5,63.3V36.7L50,28.6m0-2.7L28,35V65l22,9.1L72,65V35L50,25.9Z"/><path class="cls-1" d="M50,10A40,40,0,1,0,90,50,40,40,0,0,0,50,10Zm0,75A35,35,0,1,1,85,50,35,35,0,0,1,50,85Z"/><circle class="cls-1" cx="50" cy="6" r="4"/><circle class="cls-1" cx="50" cy="94" r="4"/><circle class="cls-1" cx="6" cy="50" r="4"/><circle class="cls-1" cx="94" cy="50" r="4"/></svg>