<svg id="Calque_1" data-name="Calque 1" xmlns="http://www.w3.org/2000/svg" viewBox="0 0 96 96"><defs><style>.cls-1{fill:#fbc74e;}</style></defs><path class="cls-1" d="M88,47.1A40.1,40.1,0,0,0,48.7,8c-.3-2.5-.5-5.1-.8-8-.3,2.9-.6,5.5-.8,8A40.1,40.1,0,0,0,8,47.3l-8,.8,8,.8A40.1,40.1,0,0,0,47.3,88c.3,2.5.5,5.1.8,8,.3-2.9.6-5.5.8-8A40.1,40.1,0,0,0,88,48.7l8-.8ZM48,83A35,35,0,1,1,83,48,35,35,0,0,1,48,83Z"/><rect class="cls-1" x="40.2" y="25.5" width="15.6" height="45.1" rx="5"/><rect class="cls-1" x="40.2" y="25.5" width="15.6" height="45.1" rx="5" transform="translate(0 96) rotate(-90)"/><ellipse class="cls-1" cx="62" cy="36.3" rx="4.9" ry="3.5" transform="translate(-1.7 69.5) rotate(-57.9)"/><ellipse class="cls-1" cx="62" cy="27.9" rx="1.7" ry="1" transform="translate(3.3 62.3) rotate(-54.6)"/><ellipse class="cls-1" cx="68.3" cy="25.2" rx="2" ry="2.4"/><ellipse class="cls-1" cx="28.6" cy="66.4" rx="4.2" ry="0.6" transform="translate(-42.1 51.4) rotate(-54.7)"/><ellipse class="cls-1" cx="37" cy="63.5" rx="2.6" ry="1.6" transform="translate(-36.3 68.5) rotate(-63.7)"/></svg>