<svg id="Calque_1" data-name="Calque 1" xmlns="http://www.w3.org/2000/svg" viewBox="0 0 100 100"><defs><style>.cls-1,.cls-4{fill:#fbc74e;}.cls-2,.cls-3{fill:none;}.cls-2,.cls-3,.cls-4{stroke:#fbc74e;stroke-miterlimit:10;}.cls-2{stroke-width:2px;}</style></defs><path class="cls-1" d="M96.4,62.3l-7.5-2.8A50.4,50.4,0,0,0,90,50.7l8-.8-8-.8a42.4,42.4,0,0,0-1.2-8.8l7.5-2.8-7.9,1.3A39.4,39.4,0,0,0,85,30.6l6.5-4.7-7.3,3.3a41.4,41.4,0,0,0-5.5-7c1.7-1.9,3.4-4,5.2-6.2l-6.2,5.1a45.9,45.9,0,0,0-7.1-5.4l3.3-7.3-4.7,6.5A42.8,42.8,0,0,0,61,11.5c.4-2.4.9-5.1,1.3-7.9-1,2.7-1.9,5.2-2.8,7.5A50.4,50.4,0,0,0,50.7,10c-.3-2.5-.5-5.1-.8-8-.3,2.9-.6,5.5-.8,8a42.4,42.4,0,0,0-8.8,1.2L37.5,3.7c.4,2.8.9,5.4,1.3,7.9A39.4,39.4,0,0,0,30.6,15L25.9,8.5l3.3,7.3a41.4,41.4,0,0,0-7,5.5c-1.9-1.7-4-3.4-6.2-5.2,1.8,2.3,3.5,4.3,5.1,6.2a45.9,45.9,0,0,0-5.4,7.1L8.4,26.1l6.5,4.7A42.8,42.8,0,0,0,11.5,39L3.6,37.7l7.5,2.8A50.4,50.4,0,0,0,10,49.3l-8,.8,8,.8a42.4,42.4,0,0,0,1.2,8.8L3.7,62.5l7.9-1.3A39.4,39.4,0,0,0,15,69.4L8.5,74.1l7.3-3.3a41.4,41.4,0,0,0,5.5,7c-1.7,1.9-3.4,4-5.2,6.2l6.2-5.1a45.9,45.9,0,0,0,7.1,5.4l-3.3,7.3,4.7-6.5A42.8,42.8,0,0,0,39,88.5c-.4,2.4-.9,5.1-1.3,7.9,1-2.7,1.9-5.2,2.8-7.5A50.4,50.4,0,0,0,49.3,90c.3,2.5.5,5.1.8,8,.3-2.9.6-5.5.8-8a42.4,42.4,0,0,0,8.8-1.2l2.8,7.5c-.4-2.8-.9-5.4-1.3-7.9A39.4,39.4,0,0,0,69.4,85l4.7,6.5-3.3-7.3a41.4,41.4,0,0,0,7-5.5c1.9,1.7,4,3.4,6.2,5.2-1.8-2.3-3.5-4.3-5.1-6.2a45.9,45.9,0,0,0,5.4-7.1l7.3,3.3-6.5-4.7A42.8,42.8,0,0,0,88.5,61ZM50,85A35,35,0,1,1,85,50,35,35,0,0,1,50,85Z"/><rect class="cls-2" x="30.1" y="31" width="39.7" height="37.96" rx="2"/><rect class="cls-1" x="37.8" y="53.4" width="10.6" height="15.42" rx="1.1"/><path class="cls-3" d="M32.2,31h3.5a0,0,0,0,1,0,0V46.7a2,2,0,0,1-2,2H32.2a2,2,0,0,1-2-2V33.1A2,2,0,0,1,32.2,31Z"/><path class="cls-3" d="M64.3,31h3.5a2,2,0,0,1,2,2V46.7a2,2,0,0,1-2,2H66.3a2,2,0,0,1-2-2V31A0,0,0,0,1,64.3,31Z"/><path class="cls-3" d="M41.5,31h5.6a0,0,0,0,1,0,0V46.7a2,2,0,0,1-2,2H43.5a2,2,0,0,1-2-2V31A0,0,0,0,1,41.5,31Z"/><path class="cls-3" d="M52.9,31.1h5.6a0,0,0,0,1,0,0V46.7a2,2,0,0,1-2,2H54.9a2,2,0,0,1-2-2V31.1A0,0,0,0,1,52.9,31.1Z"/><rect class="cls-4" x="35.8" y="31" width="5.6" height="17.69" rx="2"/><rect class="cls-4" x="47.2" y="31" width="5.6" height="17.69" rx="2"/><rect class="cls-4" x="58.6" y="31" width="5.6" height="17.69" rx="2"/><rect class="cls-3" x="55" y="53.1" width="9.1" height="7.01" rx="1.4"/></svg>