<svg id="Calque_1" data-name="Calque 1" xmlns="http://www.w3.org/2000/svg" viewBox="0 0 100 100"><defs><style>.cls-1{fill:#fbc74e;}</style></defs><path class="cls-1" d="M90,49.1A40.1,40.1,0,0,0,50.7,10c-.3-2.5-.5-5.1-.8-8-.3,2.9-.6,5.5-.8,8A40.1,40.1,0,0,0,10,49.3l-8,.8,8,.8A40.1,40.1,0,0,0,49.3,90c.3,2.5.5,5.1.8,8,.3-2.9.6-5.5.8-8A40.1,40.1,0,0,0,90,50.7l8-.8ZM50,85A35,35,0,1,1,85,50,35,35,0,0,1,50,85Z"/><path class="cls-1" d="M65.4,32.4H34.6a4.8,4.8,0,0,0-4.8,4.8v8.3h13a7.5,7.5,0,0,1,14.4,0h13V37.2A4.8,4.8,0,0,0,65.4,32.4Z"/><path class="cls-1" d="M57.1,49.4a7.4,7.4,0,0,1-14.2,0H29.8V62.8a4.8,4.8,0,0,0,4.8,4.8H65.4a4.8,4.8,0,0,0,4.8-4.8V49.4Z"/><path class="cls-1" d="M52.1,44.8a2.1,2.1,0,1,0-4.2,0,2,2,0,0,0,1.2,1.8l-.9,5.3h3.6l-.9-5.3A2,2,0,0,0,52.1,44.8Z"/></svg>