<svg id="Calque_1" data-name="Calque 1" xmlns="http://www.w3.org/2000/svg" viewBox="0 0 100 100"><defs><style>.cls-1{fill:#fbc74e;}</style></defs><path class="cls-1" d="M50,10A40,40,0,1,0,90,50,40,40,0,0,0,50,10Zm0,75A35,35,0,1,1,85,50,35,35,0,0,1,50,85Z"/><circle class="cls-1" cx="50" cy="6" r="4"/><circle class="cls-1" cx="50" cy="94" r="4"/><circle class="cls-1" cx="6" cy="50" r="4"/><circle class="cls-1" cx="94" cy="50" r="4"/><path class="cls-1" d="M63.1,32.3a4.5,4.5,0,0,1-4.5-4.4H41.7a4.4,4.4,0,0,1-4.4,4.4h-.8V57.4c0,3.5,10,14.7,13.5,14.7h0c3.5,0,13.5-11.2,13.5-14.7V32.3ZM50,70.1V29.9h7a6.4,6.4,0,0,0,4.5,4.2V57.4C61.4,59.7,52.6,70.1,50,70.1Z"/></svg>