<svg id="Calque_1" data-name="Calque 1" xmlns="http://www.w3.org/2000/svg" viewBox="0 0 100 100"><defs><style>.cls-1{fill:none;stroke:#fbc74e;stroke-miterlimit:10;stroke-width:2px;}.cls-2{fill:#fbc74e;}</style></defs><rect class="cls-1" x="35.1" y="30.4" width="29.3" height="36.75" rx="2"/><path class="cls-2" d="M50.1,47.5a.9.9,0,0,1,.7-.3h.6l.3.2a.3.3,0,0,1,.1.2c.1.1.1.4.1.6v7.1c0,.1-.1.2-.1.4s-.5.3-1,.3-.8-.1-.9-.3a.6.6,0,0,1-.1-.4V50.6l-.2.2-.8.3a.8.8,0,0,1-.7-.4c-.3-.3-.4-.5-.4-.7a.9.9,0,0,1,.4-.7l2-1.8Z"/><rect class="cls-2" x="35.1" y="30.4" width="29.3" height="11.13"/><path class="cls-2" d="M50,10A40,40,0,1,0,90,50,40,40,0,0,0,50,10Zm0,75A35,35,0,1,1,85,50,35,35,0,0,1,50,85Z"/><circle class="cls-2" cx="50" cy="6" r="4"/><circle class="cls-2" cx="50" cy="94" r="4"/><circle class="cls-2" cx="6" cy="50" r="4"/><circle class="cls-2" cx="94" cy="50" r="4"/></svg>