<?xml version="1.0" encoding="utf-8"?>
<!-- Generator: Adobe Illustrator 26.0.0, SVG Export Plug-In . SVG Version: 6.00 Build 0)  -->
<svg version="1.1" id="Calque_1" xmlns="http://www.w3.org/2000/svg" xmlns:xlink="http://www.w3.org/1999/xlink" x="0px" y="0px"
	 viewBox="0 0 96 96" style="enable-background:new 0 0 96 96;" xml:space="preserve">
<style type="text/css">
	.st0{fill:#FBC74E;}
	.st1{fill:#FFFFFF;}
</style>
<path class="st0" d="M94.4,60.3c-2.7-1-5.2-2-7.5-2.8c0.7-2.8,1.1-5.8,1.1-8.8c2.5-0.2,5.2-0.5,8-0.8c-2.9-0.3-5.5-0.5-8-0.8
	c-0.1-3-0.5-6-1.2-8.8c2.4-0.9,4.9-1.8,7.5-2.8c-2.8,0.5-5.5,0.9-7.9,1.3c-0.8-2.9-2-5.6-3.4-8.2c2.1-1.4,4.2-3,6.5-4.7
	c-2.6,1.2-5,2.3-7.3,3.3c-1.6-2.6-3.4-4.9-5.5-7.1c1.6-1.9,3.3-4,5.1-6.2c-2.2,1.8-4.3,3.5-6.2,5.1c-2.1-2.1-4.5-3.9-7.1-5.4
	c1.1-2.3,2.2-4.7,3.3-7.3c-1.7,2.3-3.2,4.5-4.7,6.6c-2.6-1.4-5.4-2.6-8.2-3.4c0.4-2.5,0.9-5.1,1.3-7.9c-1,2.7-2,5.2-2.8,7.5
	c-2.8-0.7-5.8-1.1-8.8-1.1c-0.2-2.5-0.5-5.2-0.8-8c-0.3,2.9-0.5,5.5-0.8,8c-3,0.1-6,0.5-8.8,1.2c-0.9-2.4-1.8-4.9-2.8-7.5
	c0.5,2.8,0.9,5.5,1.3,7.9c-2.9,0.8-5.6,2-8.2,3.4c-1.4-2.1-3-4.2-4.7-6.6c1.2,2.6,2.3,5,3.3,7.3c-2.6,1.6-4.9,3.4-7,5.5
	c-1.9-1.6-4-3.3-6.2-5.1c1.8,2.2,3.5,4.3,5.1,6.2c-2.1,2.1-3.9,4.5-5.4,7.1c-2.3-1.1-4.7-2.2-7.3-3.3c2.3,1.7,4.5,3.2,6.6,4.7
	c-1.4,2.6-2.6,5.4-3.4,8.2c-2.5-0.4-5.1-0.9-7.9-1.3c2.7,1,5.2,2,7.5,2.8c-0.7,2.8-1.1,5.8-1.1,8.8c-2.5,0.2-5.2,0.5-8,0.8
	c2.9,0.3,5.5,0.5,8,0.8c0.1,3,0.5,6,1.2,8.8c-2.4,0.9-4.9,1.8-7.5,2.8c2.8-0.5,5.5-0.9,7.9-1.3c0.8,2.9,2,5.6,3.4,8.2
	c-2.1,1.4-4.2,3-6.6,4.7c2.6-1.2,5-2.3,7.3-3.3c1.6,2.6,3.4,4.9,5.5,7.1c-1.6,1.9-3.3,4-5.1,6.2c2.2-1.8,4.3-3.5,6.2-5.1
	c2.1,2.1,4.5,3.9,7.1,5.4c-1.1,2.3-2.2,4.7-3.3,7.3c1.7-2.3,3.2-4.5,4.7-6.5c2.6,1.4,5.4,2.6,8.2,3.4c-0.4,2.5-0.9,5.1-1.3,7.9
	c1-2.7,2-5.2,2.8-7.5c2.8,0.7,5.8,1.1,8.8,1.1c0.2,2.5,0.5,5.2,0.8,8c0.3-2.9,0.5-5.5,0.8-8c3-0.1,6-0.5,8.8-1.2
	c0.9,2.4,1.8,4.9,2.8,7.5c-0.5-2.8-0.9-5.5-1.3-7.9c2.9-0.8,5.6-2,8.2-3.4c1.4,2.1,3,4.2,4.7,6.5c-1.2-2.6-2.3-5-3.3-7.3
	c2.6-1.6,4.9-3.4,7.1-5.5c1.9,1.6,4,3.3,6.2,5.1c-1.8-2.2-3.5-4.3-5.1-6.2c2.1-2.1,3.9-4.5,5.4-7.1c2.3,1.1,4.7,2.2,7.3,3.3
	c-2.3-1.7-4.5-3.2-6.5-4.7c1.4-2.6,2.6-5.4,3.4-8.2C88.9,59.4,91.6,59.9,94.4,60.3z M48,83c-19.3,0-35-15.7-35-35s15.7-35,35-35
	s35,15.7,35,35S67.3,83,48,83z"/>
<g>
	<path class="st0" d="M55,44.6c1-0.5,2-1.1,3.2-1.8c3.1-2,6.7,2.9,6.7,6.4c0,1.5-0.6,3-1.5,4.1l4.1,4.2c3.6-3.5,5.7-8,5.7-12.9
		c0-11.2-11.3-20.3-25.2-20.3c-3.9,0-7.5,0.7-10.8,1.9L55,44.6z"/>
	<path class="st0" d="M66.3,58.6l-4-4.3c-1.1,0.8-2.6,1.4-4.1,1.4c-3.7,0-6.7-2.9-6.7-6.4c0-2,0.9-3,2.4-3.9L36.4,26.6
		C28.3,30,22.8,36.8,22.8,44.6c0,5.9,3.1,11.2,8.1,15c-0.2,0.6-0.3,1.2-0.3,1.8v1.5c0,2.7,1.9,5,4.4,5.6C35,68.7,35,68.8,35,69v1
		c0,1,0.8,1.7,1.7,1.7c1,0,1.7-0.8,1.7-1.7v-1c0-0.1,0-0.2,0-0.4h0.7c0,0.1,0,0.2,0,0.4v1c0,1,0.8,1.7,1.7,1.7c1,0,1.7-0.8,1.7-1.7
		v-1c0-0.1,0-0.2,0-0.4h4.8c0,0.1,0,0.2,0,0.4v1c0,1,0.8,1.7,1.7,1.7h0c0.6,0,1.2-0.4,1.5-0.9c0.3,0.5,0.9,0.9,1.5,0.9
		c1,0,1.7-0.8,1.7-1.7v-1c0-0.1,0-0.2,0-0.4h0.3c0,0.1,0,0.2,0,0.4v1c0,1,0.8,1.7,1.7,1.7c1,0,1.7-0.8,1.7-1.7v-1c0-0.1,0-0.2,0-0.4
		h0.4c0,0.1,0,0.2,0,0.4v1c0,1,0.8,1.7,1.7,1.7c1,0,1.7-0.8,1.7-1.7v-1c0-0.2,0-0.4-0.1-0.6c2.4-0.7,4.2-2.9,4.2-5.6v-1.5
		c0-0.6-0.1-1.2-0.3-1.8C65.5,59.3,65.9,58.9,66.3,58.6z M37,55.6c-3.7,0-6.7-2.9-6.7-6.4c0-3.5,3.6-8.5,6.7-6.4
		c3.6,2.4,6.7,2.9,6.7,6.4C43.7,52.7,40.7,55.6,37,55.6z M46.9,58.6c0,1.3-0.5,2.4-1.1,2.4c-0.6,0-1.1-1.1-1.1-2.4
		c0-1.3,1.5-2.4,2.1-2.4C47.5,56.3,46.9,57.3,46.9,58.6z M49.2,61c-0.6,0-1.1-1.1-1.1-2.4c0-1.3-0.6-2.4,0-2.4
		c0.6,0,2.1,1.1,2.1,2.4C50.2,59.9,49.7,61,49.2,61z"/>
</g>
</svg>
