<svg id="Calque_1" data-name="Calque 1" xmlns="http://www.w3.org/2000/svg" viewBox="0 0 96 96"><defs><style>.cls-1{fill:#fbc74e;}</style></defs><path class="cls-1" d="M48,8A40,40,0,1,0,88,48,40,40,0,0,0,48,8Zm0,75A35,35,0,1,1,83,48,35,35,0,0,1,48,83Z"/><circle class="cls-1" cx="48" cy="4" r="4"/><circle class="cls-1" cx="48" cy="92" r="4"/><circle class="cls-1" cx="4" cy="48" r="4"/><circle class="cls-1" cx="92" cy="48" r="4"/><path class="cls-1" d="M60.2,23.3a7.3,7.3,0,0,0-3,.7,7.8,7.8,0,0,0-3.1-.7,7.3,7.3,0,0,0-3,.7,7.8,7.8,0,0,0-3-.7A7.8,7.8,0,0,0,45,24a7.3,7.3,0,0,0-3-.7,8.2,8.2,0,0,0-3.1.7,7.3,7.3,0,0,0-3-.7A6.8,6.8,0,0,0,29,29.9a6.8,6.8,0,0,0,6.2,6.6v15a2.3,2.3,0,0,0-.6,1.6v2.7A2.4,2.4,0,0,0,37,58.2H57.8a2.4,2.4,0,0,0,2.4-2.4V53.1a2.4,2.4,0,0,0-.7-1.7V36.5h.7a6.7,6.7,0,0,0,6.9-6.6A6.8,6.8,0,0,0,60.2,23.3Z"/><path class="cls-1" d="M64.4,63.2a2,2,0,0,0-2.5-1.4c-.9.2-.3,2,.5,2.2s-.3-.5-.4-1.4,2,.1,1.5,1.6c-3.1,9.1-8.4,1.9-10.1,1.8S50,62.6,48,62.5h-.1c-2.1.1-3.8,3.4-5.4,3.5s-7,7.3-10.2-1.8c-.4-1.5,1.2-2.4,1.5-1.6s.1,1.4-.4,1.4,1.4-2,.5-2.2a1.9,1.9,0,0,0-2.4,1.4c-.3,1.3-1.4,7.7,4.2,8.4s12.1,2.3,12.2-1.3c.2,3.6,6.8,1.9,12.3,1.3S64.7,64.5,64.4,63.2Z"/></svg>