<svg id="Calque_1" data-name="Calque 1" xmlns="http://www.w3.org/2000/svg" viewBox="0 0 100 100"><defs><style>.cls-1{fill:#fbc74e;}</style></defs><path class="cls-1" d="M97,62.3l-7.5-2.8a37.4,37.4,0,0,0,1.1-8.9l8-.7-8-.8a43.4,43.4,0,0,0-1.2-8.9c2.4-.8,4.9-1.7,7.6-2.8l-8,1.4a40.2,40.2,0,0,0-3.4-8.3l6.5-4.6-7.3,3.3a40.8,40.8,0,0,0-5.4-7l5.1-6.3-6.2,5.2a37,37,0,0,0-7.1-5.4c1.1-2.3,2.2-4.7,3.3-7.4l-4.6,6.6a40.2,40.2,0,0,0-8.3-3.4c.4-2.5.9-5.1,1.3-7.9l-2.8,7.5A36.6,36.6,0,0,0,51.3,10c-.2-2.5-.5-5.2-.8-8-.3,2.8-.5,5.5-.8,8a32.2,32.2,0,0,0-8.8,1.2L38.1,3.6c.4,2.9.9,5.5,1.3,8A39.4,39.4,0,0,0,31.2,15c-1.4-2.1-3-4.2-4.7-6.6l3.4,7.4a37,37,0,0,0-7.1,5.4l-6.2-5.1,5.1,6.2a47.4,47.4,0,0,0-5.4,7.1L9,26l6.5,4.7A39.9,39.9,0,0,0,12.2,39l-8-1.4,7.6,2.9a42.4,42.4,0,0,0-1.2,8.8l-8,.8,8,.7a43.4,43.4,0,0,0,1.2,8.9L4.3,62.5l7.9-1.3a42.2,42.2,0,0,0,3.5,8.2L9.1,74l7.3-3.3a42.1,42.1,0,0,0,5.5,7.1c-1.6,1.9-3.3,3.9-5.1,6.2L23,78.8a41.4,41.4,0,0,0,7,5.5l-3.3,7.3L31.4,85a34.6,34.6,0,0,0,8.2,3.4c-.4,2.5-.9,5.1-1.3,8,1-2.7,2-5.2,2.8-7.6A37.4,37.4,0,0,0,50,89.9c.2,2.5.4,5.2.7,8.1.3-2.9.6-5.6.8-8.1a36.6,36.6,0,0,0,8.8-1.1c.9,2.3,1.8,4.8,2.8,7.5-.4-2.8-.9-5.5-1.3-7.9A37.5,37.5,0,0,0,70,84.9l4.7,6.6-3.3-7.3a41.4,41.4,0,0,0,7-5.5l6.2,5.1-5.1-6.2a34.1,34.1,0,0,0,5.4-7.1l7.3,3.4-6.5-4.7A41.8,41.8,0,0,0,89.1,61ZM50.6,85a35,35,0,1,1,35-35A35,35,0,0,1,50.6,85Z"/><path class="cls-1" d="M70.7,34.6H30.6A6.5,6.5,0,0,0,24.1,41V58.9a6.6,6.6,0,0,0,6.5,6.5H70.7a6.5,6.5,0,0,0,6.4-6.5V41A6.4,6.4,0,0,0,70.7,34.6Zm4.2,25.1a3.8,3.8,0,0,1-3.8,3.8h-41a3.8,3.8,0,0,1-3.8-3.8V56.5h.4a1.7,1.7,0,0,0,1.7-1.7V45.1a1.8,1.8,0,0,0-1.7-1.7h-.4V40.2a3.8,3.8,0,0,1,3.8-3.8h41a3.8,3.8,0,0,1,3.8,3.8Z"/><path class="cls-1" d="M48.8,40.8a1.1,1.1,0,0,1,1.1,1.1,1.1,1.1,0,0,1-1.1,1,1,1,0,0,1-1-1,1,1,0,0,1,1-1.1m0-.2a1.2,1.2,0,0,0-1.2,1.3,1.2,1.2,0,0,0,1.2,1.2,1.2,1.2,0,0,0,1.3-1.2,1.3,1.3,0,0,0-1.3-1.3Z"/><path class="cls-1" d="M52.8,41.1a1.1,1.1,0,0,1-1.1-1.2,1,1,0,0,1,.8-1H52a1.8,1.8,0,1,0,1.8,1.8v-.2A1.1,1.1,0,0,1,52.8,41.1Z"/><path class="cls-1" d="M54.9,40.9a.9.9,0,0,0-1,1,1,1,0,0,0,1,1,1.1,1.1,0,0,0,1-1A1,1,0,0,0,54.9,40.9Zm-.7.6h0Zm0,.3h0c-.1,0-.1,0-.1-.1S54.1,41.8,54.2,41.8Zm0,.6c0,.1-.1,0-.1,0h.2C54.3,42.4,54.3,42.4,54.2,42.4Zm0-.3h.3a.3.3,0,0,1-.1.2A.2.2,0,0,1,54.2,42.1Zm.4.6a.2.2,0,0,1-.2-.2c0-.1.1-.1.2-.1s.1,0,.1.1S54.7,42.7,54.6,42.7Z"/><circle class="cls-1" cx="48.8" cy="57.9" r="1.1"/><path class="cls-1" d="M54.8,57.2a.7.7,0,1,1-.7.7.7.7,0,0,1,.7-.7m0-.2a.9.9,0,1,0,0,1.8.9.9,0,1,0,0-1.8Z"/><path class="cls-1" d="M53.9,59.7l-1-.4h0l1-.4-1,.2h-.1l.9-.5-.9.4a.1.1,0,0,1-.1-.1l.6-.7-.7.6h-.1l.4-.9-.5.8h-.1a5.1,5.1,0,0,1,.2-.9l-.4.9H52v-1a3.8,3.8,0,0,0-.1,1h-.1l-.3-.9c0,.4.1.7.1.9h-.1l-.5-.8a3.6,3.6,0,0,1,.4.9h-.1a2.2,2.2,0,0,0-.7-.6l.6.7h0l-.9-.4.8.5h-1l.9.3h0l-.9.4,1-.2h0l-.8.5.9-.4h0l-.6.7a2.2,2.2,0,0,0,.7-.6h.1a3.6,3.6,0,0,1-.4.9l.6-.8h.1a2,2,0,0,0-.2.9l.3-.9h.1a3.8,3.8,0,0,0,.1,1v-1h.1l.4.9a6.4,6.4,0,0,0-.2-.9.1.1,0,0,1,.1-.1l.5.8-.4-.9h.1l.8.6-.7-.7h.1l.9.4-.9-.5h.1Z"/><path class="cls-1" d="M46.5,52.9v1.2a4.3,4.3,0,0,1-.1.5.9.9,0,0,1-.1.5,1.7,1.7,0,0,1-1.2.4c-.8,0-1.2-.2-1.3-.6a1.9,1.9,0,0,1-.1-.8V44.9c0-.2.1-.3.2-.5s.5-.4,1.2-.4,1.1.2,1.3.6.1.4.1.8v7.5Zm4.1-2.3V44.9c0-.2.1-.3.2-.5l.4-.3h1.5l.4.2.2.3c0,.2.1.4.1.8v8.7a.7.7,0,0,1-.1.5.9.9,0,0,1-.1.5,1.5,1.5,0,0,1-1.2.4c-.8,0-1.2-.2-1.3-.6a1.9,1.9,0,0,1-.1-.8V50.6Z"/><circle class="cls-1" cx="48.5" cy="47.2" r="0.6"/><path class="cls-1" d="M41.8,45a73.6,73.6,0,0,0,13.8,9.9c1.4.8,4.1,1.7,3.5,1.7S47.3,52.1,41.8,45Z"/><path class="cls-1" d="M56.4,51.7h2.8l.2.2v.8l-.2.2H55.6c-.4,0-.6-.1-.7-.3s-.1-.2-.1-.4V47.3c0-.1.1-.2.1-.3v-.2a.8.8,0,0,1,.7-.3c.4,0,.7.2.7.4s.1.2.1.4Z"/></svg>