<svg id="Calque_1" data-name="Calque 1" xmlns="http://www.w3.org/2000/svg" viewBox="0 0 100 100"><defs><style>.cls-1{fill:#fbc74e;}</style></defs><path class="cls-1" d="M96.4,62.3l-7.5-2.8A50.4,50.4,0,0,0,90,50.7l8-.8-8-.8a42.4,42.4,0,0,0-1.2-8.8l7.5-2.8-7.9,1.3A39.4,39.4,0,0,0,85,30.6l6.5-4.7-7.3,3.3a41.4,41.4,0,0,0-5.5-7c1.7-1.9,3.4-4,5.2-6.2l-6.2,5.1a45.9,45.9,0,0,0-7.1-5.4l3.3-7.3-4.7,6.5A42.8,42.8,0,0,0,61,11.5c.4-2.4.9-5.1,1.3-7.9-1,2.7-1.9,5.2-2.8,7.5A50.4,50.4,0,0,0,50.7,10c-.3-2.5-.5-5.1-.8-8-.3,2.9-.6,5.5-.8,8a42.4,42.4,0,0,0-8.8,1.2L37.5,3.7c.4,2.8.9,5.4,1.3,7.9A39.4,39.4,0,0,0,30.6,15L25.9,8.5l3.3,7.3a41.4,41.4,0,0,0-7,5.5c-1.9-1.7-4-3.4-6.2-5.2,1.8,2.3,3.5,4.3,5.1,6.2a45.9,45.9,0,0,0-5.4,7.1L8.4,26.1l6.5,4.7A42.8,42.8,0,0,0,11.5,39L3.6,37.7l7.5,2.8A50.4,50.4,0,0,0,10,49.3l-8,.8,8,.8a42.4,42.4,0,0,0,1.2,8.8L3.7,62.5l7.9-1.3A39.4,39.4,0,0,0,15,69.4L8.5,74.1l7.3-3.3a41.4,41.4,0,0,0,5.5,7c-1.7,1.9-3.4,4-5.2,6.2l6.2-5.1a45.9,45.9,0,0,0,7.1,5.4l-3.3,7.3,4.7-6.5A42.8,42.8,0,0,0,39,88.5c-.4,2.4-.9,5.1-1.3,7.9,1-2.7,1.9-5.2,2.8-7.5A50.4,50.4,0,0,0,49.3,90c.3,2.5.5,5.1.8,8,.3-2.9.6-5.5.8-8a42.4,42.4,0,0,0,8.8-1.2l2.8,7.5c-.4-2.8-.9-5.4-1.3-7.9A39.4,39.4,0,0,0,69.4,85l4.7,6.5-3.3-7.3a41.4,41.4,0,0,0,7-5.5c1.9,1.7,4,3.4,6.2,5.2-1.8-2.3-3.5-4.3-5.1-6.2a45.9,45.9,0,0,0,5.4-7.1l7.3,3.3-6.5-4.7A42.8,42.8,0,0,0,88.5,61ZM50,85A35,35,0,1,1,85,50,35,35,0,0,1,50,85Z"/><path class="cls-1" d="M52.4,43.7h0S52.5,43.7,52.4,43.7Z"/><ellipse class="cls-1" cx="52.5" cy="43.5" rx="0.1" ry="0.1"/><path class="cls-1" d="M52.4,43.4h0c-.1,0-.1,0-.1.1Z"/><path class="cls-1" d="M52.6,43.8c0,.1,0,.2.1.2s.1-.1.1-.2h-.2Z"/><circle class="cls-1" cx="52.4" cy="43.1"/><path class="cls-1" d="M73.2,45.4a5.3,5.3,0,0,1-5.3-5.3V38.3H31.8v1.8a5.3,5.3,0,0,1-5.3,5.3H24.8v9h1.7a5.3,5.3,0,0,1,5.3,5.3v1.9H67.9V59.7a5.3,5.3,0,0,1,5.3-5.3h1.7v-9ZM52.9,42.5a.9.9,0,0,1,.9.8.8.8,0,0,1-.9.8.8.8,0,0,1-.8-.8A.9.9,0,0,1,52.9,42.5Zm-2.3-1.7H51a.8.8,0,0,0-.7.8,1,1,0,0,0,1,1c.3,0,.6-.3.8-.6v.2a1.5,1.5,0,1,1-1.5-1.5ZM48,42.3a1,1,0,0,1,1,1,1,1,0,0,1-2,0A1,1,0,0,1,48,42.3Zm.3,5.4a.6.6,0,0,1-.6.5.5.5,0,0,1-.5-.5.6.6,0,1,1,1.1,0ZM37.2,58.5h-1V58h1Zm0-1.5h-1V56h1Zm0-2.1h-1v-1h1Zm0-2.1h-1v-1h1Zm0-2.1h-1v-1h1Zm0-2.1h-1v-1h1Zm0-2.1h-1v-1h1Zm0-2.1h-1v-1h1Zm0-2.1h-1v-.5h1Zm10.7,15a.9.9,0,0,1-.8-.9.9.9,0,0,1,.8-.8.9.9,0,0,1,.9.8A.9.9,0,0,1,47.9,57.3Zm4.2.6-.8-.2h0l.7.5-.8-.4h0l.5.6-.6-.5H51l.4.7-.5-.6h-.1c.1.2.1.5.2.8l-.3-.8h-.1v.8a2.8,2.8,0,0,1-.1-.8h-.1a3.1,3.1,0,0,1-.2.8c0-.3.1-.6.1-.8h-.1a2.1,2.1,0,0,1-.4.6l.3-.7h0l-.7.5c.3-.3.4-.5.6-.6h-.1l-.7.4.7-.5h-.1l-.8.2.8-.3h0l-.8-.2h.9l-.7-.4.7.3H50l-.6-.7.7.6h0l-.3-.7.4.7h.1c0-.2-.1-.4-.1-.8a3.1,3.1,0,0,1,.2.8h.1a2.5,2.5,0,0,1,.1-.8v.8h.1l.3-.8a4.5,4.5,0,0,1-.2.8h.1l.5-.6-.4.7a.1.1,0,0,1,.1.1l.6-.6-.5.7h0l.7-.3-.6.4h0l.8-.2-.8.3h.1a.1.1,0,0,1-.1.1Zm.8-.7a.8.8,0,0,1-.8-.8.8.8,0,0,1,1.6,0A.8.8,0,0,1,52.9,57.2Zm3.5-1.8a20.4,20.4,0,0,1-4.7-2v.4c0,.1-.1.2-.1.3a1.2,1.2,0,0,1-1,.4c-.6,0-1-.2-1.1-.5s-.1-.4-.1-.7V52.1L46,49.7v4.1a.4.4,0,0,1-.1.3c-.1.2-.4.4-1,.4s-.9-.2-1-.5a1.5,1.5,0,0,1-.1-.7V47.6a8,8,0,0,1-1.5-1.7l1.5,1.4V45.8c0-.1.1-.3.1-.4s.5-.3,1-.3,1,.1,1.1.4v3.6l3.4,2.4V46.2c0-.2.1-.3.1-.4a.6.6,0,0,1,.1-.4l.3-.2h1.2l.4.2c0,.1.1.1.2.2v7.4L53.6,54C54.7,54.6,56.9,55.4,56.4,55.4Zm.2-3.2h-3q-.6,0-.6-.3c-.1-.1-.1-.2-.1-.4V47.5a.3.3,0,0,0,.1-.2.8.8,0,0,1,.6-.2.6.6,0,0,1,.6.3v3.9h2.4v.7Zm6.2,6.3h-1V58h1Zm0-1.5h-1V56h1Zm0-2.1h-1v-1h1Zm0-2.1h-1v-1h1Zm0-2.1h-1v-1h1Zm0-2.1h-1v-1h1Zm0-2.1h-1v-1h1Zm0-2.1h-1v-1h1Zm0-2.1h-1v-.5h1Z"/></svg>