<svg id="Calque_1" data-name="Calque 1" xmlns="http://www.w3.org/2000/svg" viewBox="0 0 100 100"><defs><style>.cls-1{fill:#fbc74e;}.cls-2{fill:none;stroke:#fbc74e;stroke-linecap:round;stroke-miterlimit:10;stroke-width:4px;}</style></defs><path class="cls-1" d="M90,49.1A40.1,40.1,0,0,0,50.7,10c-.3-2.5-.5-5.1-.8-8-.3,2.9-.6,5.5-.8,8A40.1,40.1,0,0,0,10,49.3l-8,.8,8,.8A40.1,40.1,0,0,0,49.3,90c.3,2.5.5,5.1.8,8,.3-2.9.6-5.5.8-8A40.1,40.1,0,0,0,90,50.7l8-.8ZM50,85A35,35,0,1,1,85,50,35,35,0,0,1,50,85Z"/><path class="cls-2" d="M47.2,41.7A13.7,13.7,0,1,0,50,50"/><path class="cls-2" d="M52.8,58.2a13.4,13.4,0,0,0,10.9,5.5A13.7,13.7,0,1,0,50,50"/></svg>