<svg id="Calque_1" data-name="Calque 1" xmlns="http://www.w3.org/2000/svg" viewBox="0 0 31.3 39.8"><defs><style>.cls-1{fill:#fff;}</style></defs><path class="cls-1" d="M15.4,5.2a.2.2,0,0,1,.2.2c0,.2-.1.3-.2.3s-.2-.1-.2-.3a.2.2,0,0,1,.2-.2m0-2a2.2,2.2,0,0,0-2.2,2.2,2.2,2.2,0,0,0,2.2,2.3,2.2,2.2,0,0,0,2.2-2.3,2.2,2.2,0,0,0-2.2-2.2Z" transform="translate(-3)"/><path class="cls-1" d="M22.5,4a2,2,0,0,1-2-2A2,2,0,0,1,21.9.1h-.8a3.2,3.2,0,0,0-3.2,3.2,3.3,3.3,0,0,0,6.5,0c0-.1-.1-.2-.1-.3A2.1,2.1,0,0,1,22.5,4Z" transform="translate(-3)"/><path class="cls-1" d="M26.2,3.6A1.8,1.8,0,1,0,28,5.4,1.8,1.8,0,0,0,26.2,3.6ZM25,4.9h0Zm-.1.4c.1,0,.1.1.1.2s0,.2-.1.2V5.3Zm.2,1.2h-.2a.1.1,0,0,1,0-.2c.1-.1.2,0,.2.1Zm0-.6a.2.2,0,1,1,.4,0c0,.2-.1.3-.2.3S25.1,6.1,25.1,5.9Zm.6,1a.3.3,0,0,1-.3-.3.3.3,0,0,1,.3-.3.3.3,0,0,1,0,.6Z" transform="translate(-3)"/><circle class="cls-1" cx="12.4" cy="34.1" r="1.9"/><path class="cls-1" d="M26.1,32.4a1.7,1.7,0,0,0-1.7,1.7,1.7,1.7,0,0,0,3.4,0,1.7,1.7,0,0,0-1.7-1.7Z" transform="translate(-3)"/><path class="cls-1" d="M24.4,37.2l-1.7-.6c0-.1,0-.1.1-.2h1.7l-1.8-.2h0l1.7-.6-1.7.3c-.1-.1-.1-.1-.1-.2l1.4-1-1.6.8h-.1l1.2-1.4L22.1,35a.1.1,0,0,0-.1-.1c.2-.4.5-.9.8-1.6a7.6,7.6,0,0,0-1,1.4h-.2c.1-.5.2-1,.3-1.8a10.7,10.7,0,0,1-.6,1.7h-.1c-.1-.5-.1-1.1-.2-1.8s-.1,1.3-.1,1.8h-.2a12,12,0,0,0-.6-1.7,17.2,17.2,0,0,0,.4,1.8h-.2l-1-1.4a7.9,7.9,0,0,0,.8,1.6h-.2l-1.3-1.2,1.1,1.4h-.1L18,34.6l1.5.9a.3.3,0,0,0-.1.2l-1.7-.3,1.7.6c-.1,0-.1.1-.1.2h0c0,.1.1.1.1.2l-1.7.6,1.7-.3h.1L18,38l1.6-.7a.1.1,0,0,1,.1.1l-1.1,1.3a8.1,8.1,0,0,0,1.3-1.1h.2l-.8,1.6c.4-.6.8-1.1,1-1.5h.2c-.1.5-.2,1-.4,1.7a11.6,11.6,0,0,0,.6-1.6h.2c0,.5.1,1,.1,1.8a16.2,16.2,0,0,0,.2-1.8h.2l.5,1.6c-.1-.7-.2-1.2-.3-1.7h.2a7.7,7.7,0,0,0,1,1.5L22,37.7h.2a8.1,8.1,0,0,0,1.3,1.1,16.7,16.7,0,0,0-1.2-1.3c.1,0,.1-.1.1-.2l1.7.8-1.5-1a.1.1,0,0,1,.1-.1Z" transform="translate(-3)"/><circle class="cls-1" cx="11.9" cy="14.9" r="1.2"/><path class="cls-1" d="M27.6,28.7l-4.1-2.3V11.8a5.8,5.8,0,0,0-.1-1.5L23,9.7l-.7-.3H19.7c-.4.2-.7.3-.8.6l-.3.8V23.2c-2.8-1.8-5.3-3.6-7.4-5.2V11.8a4.9,4.9,0,0,0-.2-1.5c-.2-.7-1-1-2.3-1s-1.9.2-2.2.7a3.1,3.1,0,0,0-.2.8c0,.2-.1.5-.1.9V14C4.1,12.2,3,11.1,3,11.1s2.1,2.6,3.2,3.8V27.2a4.9,4.9,0,0,0,.2,1.5c.2.7,1,1,2.3,1s1.9-.2,2.2-.7a3.1,3.1,0,0,0,.2-.8,2.2,2.2,0,0,0,.1-.9v-8a70.9,70.9,0,0,0,7.4,5.2v2.7a3,3,0,0,0,.2,1.5c.2.7.9,1,2.3,1s1.9-.2,2.1-.7a1.6,1.6,0,0,0,.3-.8v-.8c5.3,2.8,9.5,4.4,10.3,4.4S30,30.1,27.6,28.7Z" transform="translate(-3)"/><path class="cls-1" d="M28.9,22.9h5c.2.1.3.2.3.4s.1.4.1.6a1.5,1.5,0,0,1-.1.7c0,.2-.1.3-.2.3s-.5.2-.9.2H27.5q-1,0-1.2-.6a1.7,1.7,0,0,1-.1-.8V14.6c0-.1.1-.2.1-.4s.6-.4,1.3-.4,1.1.2,1.2.6.1.4.1.8Z" transform="translate(-3)"/></svg>