<svg id="Calque_1" data-name="Calque 1" xmlns="http://www.w3.org/2000/svg" viewBox="0 0 39 31.5"><defs><style>.cls-1{fill:#fff;}.cls-2{fill:red;}</style></defs><path class="cls-1" d="M11.5,20.5a2.6,2.6,0,0,1-.4-1.5,8.7,8.7,0,0,1,.9-3.6h-.1a1,1,0,0,0-.4.5c-.4.5-.7,1.2-1.2,1.8a.8.8,0,0,1-.7.4,1,1,0,0,1-.7-.4,1.4,1.4,0,0,1-.3-.9,3.4,3.4,0,0,1,2-3.1h.5a.9.9,0,0,1,.8.4.8.8,0,0,1,.2.5v.2h.5c.4,0,.6.4.6.8s-.1.3-.1.5a8.9,8.9,0,0,0-.8,3.2v.5h.1l.2-.3a2.2,2.2,0,0,0,.5-.8c.7-1.2,1.1-2.2,1.7-3.4H15l-.4,1c-.4.8-1.5,3.9-2,4.3l-.5.2A.9.9,0,0,1,11.5,20.5Zm-1.4-3.9c.6-.4,1-1.1,1.7-1.7h0c0-.2,0-.3-.1-.3s-.8.4-.9.4a3.8,3.8,0,0,0-.9,1.3,4.3,4.3,0,0,0-.1.5h0Z" transform="translate(-1.1 -1.6)"/><path class="cls-1" d="M15.8,20.3c-.6-.1-.9-.8-1-1.4a5,5,0,0,1-.2-1.7,30.7,30.7,0,0,1,.6-5.3h-.1a1.8,1.8,0,0,0-1.1.8h-.3c-.2,0-.3-.1-.3-.4v-.2a2.8,2.8,0,0,1,1.9-1.6h.2A5.6,5.6,0,0,1,16,9.4c.1-.1.1-.3.2-.4a.6.6,0,0,1,.6-.5.6.6,0,0,1,.5.6v.3a10.4,10.4,0,0,1-.5,1.2h3.1a7.9,7.9,0,0,0,3.2-.4.1.1,0,0,1,.1-.1.2.2,0,0,1,.2.2c0,.2-.3.3-.5.4s-4.5.7-6.1.8h-.2c-.1,0-.1,0-.1.2a14.3,14.3,0,0,0-.4,2.2,17.1,17.1,0,0,0-.3,3.1,4.7,4.7,0,0,0,.2,1.7c0,.2.1.4.2.4a2.9,2.9,0,0,0,1.2-.7c.8-.8,1.5-1.8,2.4-2.7l.8-.7h.1c.1,0,.2,0,.2.2h0a6.3,6.3,0,0,0-1.1,1.3c-.7.9-1.4,1.7-2,2.6a2,2,0,0,1-1.6,1.1Z" transform="translate(-1.1 -1.6)"/><path class="cls-1" d="M20.5,19.6a1.9,1.9,0,0,1-.4-1.5,12.6,12.6,0,0,1,.4-2.8l.2-.5a.8.8,0,0,1,.7-.5.5.5,0,0,1,.5.5.6.6,0,0,1-.1.4,9.3,9.3,0,0,0-.5,2.9v.3c0,.1,0,.3.1.3a.2.2,0,0,0,.2-.2l.6-.8,1.3-2.6h.2c-.4.9-1.6,4.1-2.1,4.5h-.5A.9.9,0,0,1,20.5,19.6ZM21.6,13a1.4,1.4,0,0,1,.4-1,.5.5,0,0,1,.5-.3.6.6,0,0,1,.6.6.4.4,0,0,1-.1.3l-.3.5-.3.6h-.3C21.8,13.8,21.6,13.4,21.6,13Z" transform="translate(-1.1 -1.6)"/><path class="cls-1" d="M24.7,20c-.5-.2-.6-.6-.6-1.1a4.5,4.5,0,0,1,.8-2.2c.2-.5.6-1,.8-1.5V15h-.2a8.5,8.5,0,0,1-1.7.4,1.4,1.4,0,0,1-1.3-.6,2,2,0,0,1-.3-1.1,3.4,3.4,0,0,1,1.3-2.8l.7-.2a.9.9,0,0,1,1,1,4.8,4.8,0,0,1-.9,2.5h1.6A1,1,0,0,1,27,15a5.6,5.6,0,0,1-.7,1.6,10.9,10.9,0,0,0-.8,1.5l-.2.5h.2a9.7,9.7,0,0,0,2.2-2.3,5.8,5.8,0,0,1,1-1.2h.4c0,.1-.2.3-.2.4L28,16.7c-.7,1-1.3,2.2-2,3a1.1,1.1,0,0,1-.9.4Zm-.9-5.9a3.7,3.7,0,0,0,.7-2h0a.4.4,0,0,0-.1-.3,2.3,2.3,0,0,0-1,2c0,.4-.1.5.3.5Z" transform="translate(-1.1 -1.6)"/><path class="cls-1" d="M29.4,18.8a1,1,0,0,1-1-.7,2,2,0,0,1-.2-1.1A4.3,4.3,0,0,1,30,13.7a1.8,1.8,0,0,1,.9-.4.8.8,0,0,1,.8.9c0,1.2-1.1,2-2.2,2.4a.3.3,0,0,0-.1.2v.7c.1.3.2.3.5.4h.4a10.2,10.2,0,0,0,2.9-2.6h.3c0,.1,0,.1-.1.2s-2.2,2.9-3.2,3.3Zm.4-2.9c.5-.4,1.1-.8,1.1-1.4a4.1,4.1,0,0,0-1.2,1.4h.1Z" transform="translate(-1.1 -1.6)"/><path class="cls-1" d="M13.6,32.9c-.7-.2-.9-.8-1.1-1.4a9.7,9.7,0,0,1-.1-1.7,30.7,30.7,0,0,1,.6-5.3h-.2a2.6,2.6,0,0,0-1.1.7h0c0,.1-.1.1-.2.1s-.3-.1-.3-.4v-.2a2.5,2.5,0,0,1,2-1.6c.1,0,.1,0,.1-.1l.5-1.2c0-.1.1-.3.1-.4a.7.7,0,0,1,.6-.5c.4,0,.5.2.6.6a.4.4,0,0,1-.1.3c0,.4-.3.7-.4,1.2h3a6.9,6.9,0,0,0,3.3-.5H21a.2.2,0,0,1,.2.2c0,.2-.3.3-.5.4s-4.6.7-6.2.8h-.1c-.1,0-.1,0-.1.2s-.3,1.4-.5,2.2-.2,2.1-.2,3.1a4.7,4.7,0,0,0,.2,1.7c0,.2.1.4.2.4a2.1,2.1,0,0,0,1.1-.7c.9-.9,1.6-1.8,2.4-2.7a1.8,1.8,0,0,1,.8-.7h.2c.1,0,.1,0,.2.2a.1.1,0,0,1-.1.1l-1.1,1.3-2,2.6A2,2,0,0,1,14,33Z" transform="translate(-1.1 -1.6)"/><path class="cls-1" d="M20.9,31.4a6.8,6.8,0,0,1,.6-2.9h0a.1.1,0,0,0-.1.1,13.9,13.9,0,0,1-2.1,2.1H19c-.5,0-.9-.6-.9-1.3a4.3,4.3,0,0,1,1-2.9,1.1,1.1,0,0,1,.9-.5.6.6,0,0,1,.6.6.5.5,0,0,1-.4.5h-.1a2.9,2.9,0,0,0-.8,2.1h.1l.5-.3a23.1,23.1,0,0,1,1.9-1.4c.2-.2.4-.4.6-.4a.7.7,0,0,1,.6.7.3.3,0,0,1-.1.2,8.6,8.6,0,0,0-.9,3.4,2.3,2.3,0,0,0,.1.4l.3-.2a3.5,3.5,0,0,0,.5-.8c.6-1.1.9-1.9,1.6-3.2h.1c.1,0,.1,0,.1.1h0l-.5,1.1c-.3.8-1.3,3.7-1.8,4.1l-.5.2C21.2,33.2,20.9,32.2,20.9,31.4Z" transform="translate(-1.1 -1.6)"/><path class="cls-1" d="M27.3,30a9.2,9.2,0,0,1,.1-1.6h-.1a16.3,16.3,0,0,0-1.1,1.7c-.4.5-.8,1.1-1.4,1.1a.9.9,0,0,1-.8-.4,2,2,0,0,1-.3-1.1,4.7,4.7,0,0,1,1.9-3.4,1.8,1.8,0,0,1,1.1-.4,1.4,1.4,0,0,1,1.1.6,11.7,11.7,0,0,1,1.4-3c.6-.9,1.6-2.1,2.6-2.1s1,.8,1,1.4a3.8,3.8,0,0,1-1.1,2.4,7.7,7.7,0,0,1-2.8,2.3.1.1,0,0,0-.1.1,10.7,10.7,0,0,0-.3,2.5,2.8,2.8,0,0,0,.1.9c.1.3.1.4.4.4a1.7,1.7,0,0,0,1.3-.7l1.4-1.3,1.4-1.6a.1.1,0,0,1,.1-.1c.1,0,.2,0,.2.1a.3.3,0,0,0-.1.2A10.1,10.1,0,0,1,32,29.6c-1.1,1.3-.5.7-1.6,1.9a2.8,2.8,0,0,1-1.7,1C27.6,32.5,27.3,31.2,27.3,30Zm-1.7-.3.6-.5c.3-.4,1.4-1.5,1.4-1.8h0c-.1-.1-.2-.3-.4-.3a1.4,1.4,0,0,0-1.1.6,3.1,3.1,0,0,0-1.2,2.4.1.1,0,0,0,.1.1Zm6.6-6.5a.6.6,0,0,0-.2-.5h0a1.7,1.7,0,0,0-1,.6,8.6,8.6,0,0,0-2,3.6h0C30.5,26.1,32.2,24.8,32.2,23.2Z" transform="translate(-1.1 -1.6)"/><path class="cls-1" d="M33,32.2a2.1,2.1,0,0,1-.5-1.5,8.7,8.7,0,0,1,.5-2.8.8.8,0,0,1,.2-.5c.2-.4.4-.5.7-.5s.5.1.5.5-.1.3-.1.4a7.1,7.1,0,0,0-.6,2.8V31a.5.5,0,0,1,.1.3l.3-.2a5.6,5.6,0,0,1,.5-.8c.5-.9.8-1.6,1.3-2.6H36c.1,0,.1,0,.1.1h0c-.4,1-1.6,4.2-2,4.5a.6.6,0,0,1-.5.2A.6.6,0,0,1,33,32.2Zm1-6.6a1.8,1.8,0,0,1,.4-1,.5.5,0,0,1,.5-.3.6.6,0,0,1,.6.6.4.4,0,0,1-.1.3c-.1.2-.2.3-.2.5l-.4.6h-.3C34.2,26.4,34,26,34,25.6Z" transform="translate(-1.1 -1.6)"/><path class="cls-1" d="M35.8,32a2.2,2.2,0,0,1-.6-1.8,4.8,4.8,0,0,1,.8-2.8c.3-.5.6-.9,1.1-.9s.6.1.6.4,0,.1.1.1a.8.8,0,0,1,.3.7q.1.3.3.3h.3l1.3-.2c.1,0,.1,0,.1.1h-.3l-1,.3c-.6.1-.6.1-.6.4a3.1,3.1,0,0,1-.1,1c-.2,1.2-.7,2.5-1.6,2.5Zm1.3-1.5a3.2,3.2,0,0,0,.5-1.9c0-.4-.2-.5-.4-.8h-.1c-.1.1-.1.2-.2.4a4,4,0,0,0-.5,2.2c0,.2,0,.6.1.6h.1A.8.8,0,0,0,37.1,30.5Z" transform="translate(-1.1 -1.6)"/><path class="cls-2" d="M12.8,21.4c-.1-.2-.2-.4-.4-.4H12a14.3,14.3,0,0,0-4.1,1.7l-.4.2v-.2a19.8,19.8,0,0,0-1.9-3.1c-.4-.5-.7-1.1-1.1-1.7a5.4,5.4,0,0,1-.5-2.2v-.4a7.5,7.5,0,0,1,1-3.8A6.3,6.3,0,0,1,7.2,9.3h.4a.5.5,0,0,1,.5.4L9,11.2a4.9,4.9,0,0,0,1.2,1.3h.5a.7.7,0,0,0,.7-.6h0l-.2-.4c-.1-.1-.2-.4-.4-.5a14.3,14.3,0,0,1-.9-2.7L10.8,7c.8-1.3.4-3.7.2-5.4a12.7,12.7,0,0,0-1,3.6,14.7,14.7,0,0,1-.7,1.7.8.8,0,0,0-.7-.4H8.5a.9.9,0,0,0-.9.7H6.9a2.7,2.7,0,0,0-1.6.6L5,8.1A10.8,10.8,0,0,1,4,5.8c-.3-1.7-.7-3.3-1-3.5-.2,1.7-.6,4.1.2,5.3L4.1,9l-.3.3a9.7,9.7,0,0,0-2.2,6.3v.2A7.2,7.2,0,0,0,2.4,19a15.8,15.8,0,0,0,1.5,2.4A13.5,13.5,0,0,1,5.4,24h0l-1,.6A10.4,10.4,0,0,0,2.7,26a4,4,0,0,0-1.3,1.6,3.1,3.1,0,0,0-.3,1.3v.2a3.1,3.1,0,0,0,2.1,2.8,3.2,3.2,0,0,0,1.4.3L5.7,32A3,3,0,0,0,8,30.4a4.7,4.7,0,0,0,.8-2.7,2.8,2.8,0,0,0-.1-.9,15.5,15.5,0,0,0-.5-2.3h0v-.2a16.6,16.6,0,0,1,4.1-2.3h.2c.1-.1.2-.2.2-.3ZM6.4,28.5a2,2,0,0,1-.4.8,1,1,0,0,1-1,.5H4.1l-.5-.3a1.4,1.4,0,0,1-.2-.6.4.4,0,0,1,.1-.3.8.8,0,0,1,.2-.4,10.9,10.9,0,0,1,2.4-2.4h.1l.3,1.5v.5A2.5,2.5,0,0,1,6.4,28.5Z" transform="translate(-1.1 -1.6)"/></svg>