<?xml version="1.0" encoding="utf-8"?>
<!-- Generator: Adobe Illustrator 26.0.0, SVG Export Plug-In . SVG Version: 6.00 Build 0)  -->
<svg version="1.1" id="Calque_1" xmlns="http://www.w3.org/2000/svg" xmlns:xlink="http://www.w3.org/1999/xlink" x="0px" y="0px"
	 viewBox="0 0 98.8 60" style="enable-background:new 0 0 98.8 60;" xml:space="preserve">
<style type="text/css">
	.st0{fill:#FFFFFF;}
	.st1{fill:#FBC74E;}
</style>
<g>
	<rect x="3.5" y="15.1" class="st0" width="89.6" height="28.7"/>
	<path class="st1" d="M27.6,30.3c-0.6,0.1-1.1,0.5-1.3,1.1c-0.3,0.8-0.5,1.7-0.5,2.6c0,0.5,0.1,1,0.4,1.4c0.2,0.3,0.6,0.5,1,0.5
		c0.4,0,0.7-0.2,0.9-0.5c0.3-0.4,0.5-0.8,0.7-1.3c0.1-0.5,0.2-1.1,0.2-1.6c0-0.5-0.1-1.1-0.4-1.5C28.4,30.6,28,30.3,27.6,30.3z"/>
	<path class="st1" d="M86.5,30.7c-0.5,0-0.9,0.4-1.2,1c-0.3,0.8-0.4,1.6-0.4,2.5c0,0.5,0.1,1,0.3,1.4c0.2,0.3,0.5,0.5,0.9,0.5
		c0.3,0,0.6-0.2,0.8-0.5c0.3-0.3,0.5-0.7,0.6-1.2c0.2-0.5,0.2-1.1,0.2-1.6c0-0.5-0.1-1-0.3-1.5C87.2,30.9,86.9,30.7,86.5,30.7z"/>
	<path class="st1" d="M92.2,12.2H6.6C3,12.1,0.1,15,0,18.6c0,0.1,0,0.1,0,0.2v22.4c0,3.6,3,6.6,6.6,6.6h85.6c3.6,0,6.6-3,6.6-6.6
		V18.8c0.1-3.6-2.8-6.5-6.4-6.6C92.3,12.2,92.3,12.2,92.2,12.2z M64.7,21.1l1.5,0.6c0.5,0.2,0.9,0.5,1.3,0.8c-0.8,1.3-1.5,2.5-2,3.5
		l-1.3-0.4L63,25.2C63.5,23.8,64.1,22.4,64.7,21.1z M19.9,33c-0.2,3-0.3,5.9-0.4,8.4H19c-1.3,0-2.6-0.3-3.9-0.7
		c-1.1-0.3-2.2-0.7-3.2-1.4v-1.1c0-2.2,0.1-4.6,0.3-7.1s0.5-5,0.8-7.1l-5,0.4c-0.4-0.9-0.7-1.8-0.9-2.7c-0.2-1-0.3-2.1-0.3-3.1v-1
		c2-0.2,4.3-0.3,6.9-0.3c4.3,0,8.6,0.3,12.9,0.8c0.3,1.1,0.4,2.2,0.4,3.3c0,0.8-0.1,1.7-0.2,2.7c-2.4-0.2-4.9-0.3-7.5-0.3H17
		l2.3,0.6l1.4,0.7C20.4,27.3,20.1,29.9,19.9,33z M32.3,36c-0.5,1.1-1.4,2.1-2.4,2.8c-1,0.7-2.1,1.1-3.3,1.1c-1.1,0-2.2-0.3-3.2-0.8
		c-0.8-0.5-1.5-1.2-2-2c-0.4-0.9-0.6-1.9-0.6-2.9c0-1.5,0.2-2.9,0.7-4.3c0.5-1.2,1.4-2.1,2.4-2.9c1.2-0.7,2.5-1.1,3.9-1.1
		c1.5-0.1,3,0.5,4,1.6c1,1.4,1.5,3,1.4,4.7C33.2,33.5,32.9,34.8,32.3,36z M45.9,32.4c-0.1,1.3-0.3,2.5-0.6,3.8
		c-0.1,0.8-0.5,1.5-1.1,2c-0.6,0.6-1.4,1-2.2,1.3c-0.9,0.3-1.8,0.4-2.7,0.4c-1,0-2-0.2-2.9-0.5c-0.8-0.3-1.6-0.7-2.2-1.4
		c-0.6-0.6-0.9-1.4-0.9-2.2c0-3.3,0.4-6.7,1.2-9.9l2.6,0.4c0.8,0.2,1.6,0.4,2.3,0.7c-0.4,1.5-0.6,3.1-0.7,4.6
		c-0.2,1.4-0.3,3-0.4,4.7c0,0.4,0.1,0.8,0.3,1.1c0.2,0.2,0.4,0.3,0.7,0.3c0.3,0,0.7-0.1,0.9-0.4c0.3-0.3,0.5-0.7,0.6-1.1
		c0.2-1.4,0.4-2.6,0.5-3.8s0.3-2.8,0.5-4.9l0.2-1.6c0.8,0.1,1.6,0.2,2.3,0.5c0.7,0.2,1.4,0.4,2.1,0.8C46.2,29.6,46,31.3,45.9,32.4z
		 M56,38.7c-0.9,0.6-2,1.1-3.1,1.3c-1.2,0.4-2.5,0.7-3.8,0.7h-0.5c0-2.5-0.2-5.2-0.4-8.2s-0.5-5.5-0.8-7.6c0.5-0.3,1-0.5,1.5-0.7
		l2.1-0.6h-2.2c-2.5,0-4.9,0.1-7.3,0.3c-0.1-0.9-0.1-1.7-0.1-2.6c0-1.1,0.1-2.1,0.3-3.2c4.2-0.5,8.4-0.8,12.6-0.8
		c2.2,0,4.4,0.1,6.6,0.3v1c0,1-0.1,2-0.3,3c-0.2,0.9-0.5,1.8-0.9,2.6l-4.8-0.4c0.3,2.1,0.6,4.4,0.8,6.8s0.3,4.8,0.3,6.9V38.7z
		 M68.7,29.4c-0.1,0.2-0.1,0.5-0.1,0.7h-5.1c0,0.6-0.1,1.3-0.2,1.9h3.2c0.2,1,0.3,2,0.3,3h-1.3c-0.7,0-1.5,0-2.2,0.2
		c0-0.1-0.1-0.2-0.1-0.4v2c1.6-0.2,3.3-0.2,4.9-0.2c0.1,0.5,0.2,1,0.2,1.5c0,0.4,0,0.7-0.1,1.1V40H66c-2.3,0-4.5,0.1-6.8,0.4
		c-0.2-0.3-0.4-0.7-0.5-1.1c-0.1-0.1-0.2-0.1-0.2-0.2v-1.6c-0.1-3.1,0.2-6.2,0.7-9.3v-1.4c1.4-0.2,2.8-0.3,4.2-0.3
		c1.7,0,3.4,0.1,5.1,0.4c0.2,0.4,0.3,0.9,0.2,1.4V29.4z M75.2,31.2L75,32.3l3.2,0.2c0,0.4,0.1,0.9,0.1,1.6c0,0.4,0,0.9-0.1,1.3h-3.5
		V40h-0.3c-0.7,0-1.5-0.2-2.2-0.4c-0.6-0.1-1.3-0.4-1.8-0.8v-1.9c0-1.3,0-2.5,0.1-3.5c0-1.1,0.1-2.1,0.3-3.2
		c-0.1-0.4-0.2-0.8-0.3-1.2c-0.1-0.5-0.1-1-0.1-1.5v-0.8l4.3-0.2c1.7,0,3.4,0.1,5.1,0.3c0.1,0.5,0.2,1.1,0.2,1.6
		c0,0.4-0.1,1-0.2,1.8h-6.5C74,30.4,74.6,30.7,75.2,31.2z M91.1,36.2c-0.5,1.1-1.3,2-2.3,2.7c-0.9,0.7-2,1.1-3.2,1.1
		c-1.1,0-2.1-0.3-3-0.8c-0.9-0.5-1.5-1.1-2-2c-0.4-0.9-0.6-1.8-0.6-2.8c0-1.4,0.2-2.8,0.7-4.1c0.5-1.1,1.3-2.1,2.3-2.8
		c1.1-0.7,2.5-1.1,3.8-1c1.5-0.1,2.9,0.5,3.9,1.5c1,1.3,1.4,2.9,1.3,4.5C92,33.8,91.7,35.1,91.1,36.2z"/>
</g>
</svg>
