<svg id="Calque_1" data-name="Calque 1" xmlns="http://www.w3.org/2000/svg" viewBox="0 0 98.8 35.6"><defs><style>.cls-1{fill:#fff;}.cls-2{fill:#fbc74e;}</style></defs><rect class="cls-1" x="3.5" y="2.9" width="89.6" height="28.68"/><path class="cls-2" d="M28.2,19a1.6,1.6,0,0,0-1.3,1.1,6.3,6.3,0,0,0-.5,2.6,2.1,2.1,0,0,0,.4,1.4,1.1,1.1,0,0,0,1,.5,1.4,1.4,0,0,0,.9-.5,4,4,0,0,0,.7-1.3,8.8,8.8,0,0,0,.2-1.6,2.4,2.4,0,0,0-.4-1.5A1.1,1.1,0,0,0,28.2,19Z" transform="translate(-0.6 -0.9)"/><path class="cls-2" d="M87.1,19.4c-.5,0-.9.4-1.2,1a6.2,6.2,0,0,0-.4,2.5,2.6,2.6,0,0,0,.3,1.4,1.1,1.1,0,0,0,.9.5,1,1,0,0,0,.8-.5,2.3,2.3,0,0,0,.6-1.2,4.4,4.4,0,0,0,.2-1.6A3.7,3.7,0,0,0,88,20,1,1,0,0,0,87.1,19.4Z" transform="translate(-0.6 -0.9)"/><path class="cls-2" d="M92.8.9H7.2A6.5,6.5,0,0,0,.6,7.5V29.9a6.6,6.6,0,0,0,6.6,6.6H92.8a6.6,6.6,0,0,0,6.6-6.6V7.5A6.5,6.5,0,0,0,92.8.9ZM65.3,9.8l1.5.6a7.4,7.4,0,0,1,1.3.8c-.8,1.3-1.5,2.5-2,3.5l-1.3-.4-1.2-.4A38.9,38.9,0,0,1,65.3,9.8ZM20.5,21.7c-.2,3-.3,5.9-.4,8.4h-.5a14,14,0,0,1-3.9-.7,9.9,9.9,0,0,1-3.2-1.4V26.9q0-3.3.3-7.2c.2-2.5.5-4.9.8-7l-5,.4a13.9,13.9,0,0,1-.9-2.7,18,18,0,0,1-.3-3.1v-1q3-.3,6.9-.3a120.5,120.5,0,0,1,12.9.8,11.5,11.5,0,0,1,.4,3.3c0,.8-.1,1.7-.2,2.7-2.4-.2-4.9-.4-7.5-.4H17.6l2.3.6,1.4.7C21,16,20.7,18.6,20.5,21.7Zm12.4,3a7.3,7.3,0,0,1-2.4,2.8,5.7,5.7,0,0,1-3.3,1.1,6.6,6.6,0,0,1-3.2-.8,6.4,6.4,0,0,1-2-2,7.3,7.3,0,0,1-.6-3,11.6,11.6,0,0,1,.7-4.2,7.6,7.6,0,0,1,2.4-2.9,7.1,7.1,0,0,1,3.9-1.1,5.1,5.1,0,0,1,4,1.6,7,7,0,0,1,1.4,4.6A8.6,8.6,0,0,1,32.9,24.7Zm13.6-3.6a32.6,32.6,0,0,1-.6,3.8,3.6,3.6,0,0,1-1.1,2,5.4,5.4,0,0,1-2.2,1.3,7.7,7.7,0,0,1-2.7.4,9.3,9.3,0,0,1-2.9-.5,4.9,4.9,0,0,1-2.2-1.4,3.2,3.2,0,0,1-.9-2.3,43,43,0,0,1,1.2-9.8l2.6.4a9,9,0,0,1,2.3.7,28.7,28.7,0,0,0-.7,4.6c-.2,1.4-.3,3-.4,4.7a1.8,1.8,0,0,0,.3,1.1.9.9,0,0,0,.7.3,1.1,1.1,0,0,0,.9-.4,2,2,0,0,0,.6-1.1c.2-1.4.4-2.6.5-3.8s.3-2.8.5-4.9l.2-1.6a9.6,9.6,0,0,1,2.3.5,8.2,8.2,0,0,1,2.1.8C46.8,18.3,46.6,20,46.5,21.1Zm10.1,6.3a8.5,8.5,0,0,1-3.1,1.3,13.4,13.4,0,0,1-3.8.7h-.5c0-2.5-.2-5.3-.4-8.2s-.5-5.5-.8-7.6a5.3,5.3,0,0,1,1.5-.7,6.5,6.5,0,0,1,2.1-.6H49.4c-2.5,0-4.9.2-7.3.4A25.4,25.4,0,0,1,42,10a15.1,15.1,0,0,1,.3-3.2A115.2,115.2,0,0,1,54.9,6a63.8,63.8,0,0,1,6.6.3v1a16.9,16.9,0,0,1-.3,3,9.7,9.7,0,0,1-.9,2.6l-4.8-.4c.3,2.1.6,4.3.8,6.8s.3,4.8.3,6.9ZM69.3,18a3.2,3.2,0,0,0-.1.8H64.1c0,.4-.1,1.1-.2,1.9h3.2a10.5,10.5,0,0,1,.3,3H66.1a7.8,7.8,0,0,0-2.2.2c0-.1-.1-.2-.1-.4v2a42.7,42.7,0,0,1,4.9-.2,4.9,4.9,0,0,1,.2,1.5,4.5,4.5,0,0,1-.1,1.1v.8H66.6a56,56,0,0,0-6.8.4,3.8,3.8,0,0,1-.5-1.1l-.2-.2V26.2a46.2,46.2,0,0,1,.7-9.3V15.5a27.7,27.7,0,0,1,4.2-.3,26.4,26.4,0,0,1,5.1.4,2.8,2.8,0,0,1,.2,1.4Zm6.5,1.9L75.6,21l3.2.2c0,.4.1.9.1,1.5a5.3,5.3,0,0,1-.1,1.4H75.3v4.5H75a7.3,7.3,0,0,1-2.2-.4,5.1,5.1,0,0,1-1.8-.8V25.6c0-1.3,0-2.5.1-3.5a17.3,17.3,0,0,1,.3-3.2,10.4,10.4,0,0,1-.3-1.2,7.6,7.6,0,0,1-.1-1.5v-.8l4.3-.2a41.2,41.2,0,0,1,5.1.3,6.1,6.1,0,0,1,.2,1.5,17.6,17.6,0,0,1-.2,1.9H73.9A5.6,5.6,0,0,1,75.8,19.9Zm15.9,5a6.7,6.7,0,0,1-2.3,2.7,5.4,5.4,0,0,1-3.2,1.1,5.8,5.8,0,0,1-3-.8,4.8,4.8,0,0,1-2-2,6.4,6.4,0,0,1-.6-2.8,10.7,10.7,0,0,1,.7-4.1,7.1,7.1,0,0,1,2.3-2.8,6.8,6.8,0,0,1,3.8-1.1,5,5,0,0,1,3.9,1.6,6.5,6.5,0,0,1,1.3,4.5A8.1,8.1,0,0,1,91.7,24.9Z" transform="translate(-0.6 -0.9)"/></svg>